<svg viewBox="0 0 97 21" xmlns="http://www.w3.org/2000/svg" xmlns:xlink="http://www.w3.org/1999/xlink"><use xlink:href="#path0_fill" transform="translate(29.9 3.56)" fill="#E7E7E8"/><use xlink:href="#path1_fill" transform="translate(37.1 6.79)" fill="#E7E7E8"/><use xlink:href="#path2_fill" transform="translate(43.4 6.62)" fill="#E7E7E8"/><use xlink:href="#path3_fill" transform="translate(48.8 3.7)" fill="#E7E7E8"/><use xlink:href="#path4_fill" transform="translate(52.1 6.65)" fill="#E7E7E8"/><use xlink:href="#path5_fill" transform="translate(58.6 6.62)" fill="#E7E7E8"/><use xlink:href="#path6_fill" transform="translate(65.3 6.62)" fill="#E7E7E8"/><use xlink:href="#path7_fill" transform="translate(70.4 6.62)" fill="#E7E7E8"/><use xlink:href="#path8_fill" transform="translate(79.4 3.56)" fill="#E7E7E8"/><use xlink:href="#path9_fill" transform="translate(84.5 3.7)" fill="#E7E7E8"/><use xlink:href="#path10_fill" transform="translate(87.4 2.62)" fill="#E7E7E8"/><use xlink:href="#path11_fill" transform="translate(91.3 6.62)" fill="#E7E7E8"/><g fill="#F7F7F7"><use xlink:href="#path12_fill" transform="translate(36.8 16.4)"/><use xlink:href="#path13_fill" transform="translate(41.4 16.43)"/><use xlink:href="#path14_fill" transform="translate(45.4 16.4)"/><use xlink:href="#path15_fill" transform="translate(47.3 14.15)"/><use xlink:href="#path16_fill" transform="translate(49.9 16.36)"/><use xlink:href="#path17_fill" transform="translate(53.3 15.42)"/><use xlink:href="#path18_fill" transform="translate(54.9 15.22)"/><use xlink:href="#path19_fill" transform="translate(56.4 16.43)"/><use xlink:href="#path20_fill" transform="translate(59.5 16.43)"/><use xlink:href="#path21_fill" transform="translate(65 16.43)"/><use xlink:href="#path22_fill" transform="translate(68.8 16.43)"/><use xlink:href="#path23_fill" transform="translate(72.7 16.36)"/><use xlink:href="#path24_fill" transform="translate(76.4 16.43)"/><use xlink:href="#path25_fill" transform="translate(79.5 16.36)"/><use xlink:href="#path26_fill" transform="translate(82.5 16.46)"/></g><use xlink:href="#path27_fill" transform="translate(29.9 16.13)" fill="#7F7F7F"/><use xlink:href="#path28_fill" fill="#727272"/><use xlink:href="#path29_fill" transform="translate(1.7)" fill="#3F3F3F"/><use xlink:href="#path30_fill" transform="translate(1.7)" fill="#4C4C4C"/><use xlink:href="#path31_fill" fill="#666"/><use xlink:href="#path32_fill" transform="translate(0 2.22)" fill="#595959"/><use xlink:href="#path33_fill" transform="translate(6.6)" fill="#3F3F3F"/><use xlink:href="#path34_fill" transform="translate(3.9 1.81)" fill="#666"/><use xlink:href="#path35_fill" transform="translate(3.9)" fill="#333"/><use xlink:href="#path36_fill" transform="translate(6.6 1.24)" fill="#747374"/><use xlink:href="#path37_fill" transform="translate(6.6 1.24)" fill="#4D4C4C"/><use xlink:href="#path38_fill" transform="translate(7.9 1.24)" fill="#3F3F3F"/><use xlink:href="#path39_fill" transform="translate(7.9 4.2)" fill="#727272"/><use xlink:href="#path40_fill" transform="translate(7.3 5.17)" fill="#666"/><use xlink:href="#path41_fill" transform="translate(9.3 4.2)" fill="#666566"/><use xlink:href="#path42_fill" transform="translate(9.3 6.72)" fill="#595959"/><use xlink:href="#path43_fill" transform="translate(7.3 7.09)" fill="#333"/><use xlink:href="#path44_fill" transform="translate(9.3 7.09)" fill="#4D4C4C"/><use xlink:href="#path45_fill" transform="translate(7.3 7.09)" fill="#3F3F3F"/><use xlink:href="#path46_fill" transform="translate(5.2 7.36)" fill="#262626"/><use xlink:href="#path47_fill" transform="translate(0 3.12)" fill="#333"/><use xlink:href="#path48_fill" transform="translate(2.1 3.12)" fill="#4C4C4C"/><use xlink:href="#path49_fill" transform="translate(0 3.66)" fill="#666"/><use xlink:href="#path50_fill" transform="translate(0 6.59)" fill="#3F3F3F"/><use xlink:href="#path51_fill" transform="translate(2.1 6.59)" fill="#262626"/><use xlink:href="#path52_fill" transform="translate(2.6 8.2)" fill="#333"/><use xlink:href="#path53_fill" transform="translate(2.6 8.2)" fill="#4C4C4C"/><use xlink:href="#path54_fill" transform="translate(0 8.13)" fill="#7F7F7F"/><use xlink:href="#path55_fill" transform="translate(3.9 9.88)" fill="#7F7F7F"/><use xlink:href="#path56_fill" transform="translate(7.3 9.21)" fill="#666566"/><use xlink:href="#path57_fill" transform="translate(7.7 9.21)" fill="#3F3F3F"/><use xlink:href="#path58_fill" transform="translate(7.7 10.18)" fill="#4C4C4C"/><use xlink:href="#path59_fill" transform="translate(11.2 10.18)" fill="#595959"/><use xlink:href="#path60_fill" transform="translate(7.7 11.46)" fill="#727272"/><use xlink:href="#path61_fill" transform="translate(9.3 11.83)" fill="#3F3F3F"/><use xlink:href="#path62_fill" transform="translate(8.4 12.63)" fill="#333"/><use xlink:href="#path63_fill" transform="translate(8.4 14.45)" fill="#727272"/><use xlink:href="#path64_fill" transform="translate(10.5 12.63)" fill="#3F3F3F"/><use xlink:href="#path65_fill" transform="translate(10.5 14.45)" fill="#595959"/><use xlink:href="#path66_fill" transform="translate(0 11.19)" fill="#3F3F3F"/><use xlink:href="#path67_fill" transform="translate(0 12.63)" fill="#252626"/><use xlink:href="#path68_fill" transform="translate(0 12.63)" fill="#333"/><use xlink:href="#path69_fill" transform="translate(0 15.52)" fill="#3F3F3F"/><use xlink:href="#path70_fill" transform="translate(1.9 13.51)" fill="#666"/><use xlink:href="#path71_fill" transform="translate(0 15.69)" fill="#4D4B4B"/><use xlink:href="#path72_fill" transform="translate(5.5 15.83)" fill="#4B4C4C"/><use xlink:href="#path73_fill" transform="translate(8.4 15.83)" fill="#333"/><use xlink:href="#path74_fill" transform="translate(1.9 15.69)" fill="#575959"/><use xlink:href="#path75_fill" transform="translate(0 17.71)" fill="#282828"/><use xlink:href="#path76_fill" transform="translate(2.9 16.6)" fill="#666566"/><use xlink:href="#path77_fill" transform="translate(5.5 16.6)" fill="#333"/><use xlink:href="#path78_fill" transform="translate(2.9 16.6)" fill="#4C4C4C"/><use xlink:href="#path79_fill" transform="translate(0 9.88)" fill="#666"/><use xlink:href="#path80_fill" transform="translate(7.1 15.83)" fill="#595959"/><use xlink:href="#path81_fill" transform="translate(6.1 18.18)" fill="#666"/><use xlink:href="#path82_fill" transform="translate(16.1)" fill="#333"/><use xlink:href="#path83_fill" transform="translate(18.6)" fill="#3F3F3F"/><use xlink:href="#path84_fill" transform="translate(16.1)" fill="#727272"/><use xlink:href="#path85_fill" transform="translate(16.1 1.24)" fill="#595958"/><use xlink:href="#path86_fill" transform="translate(16.1 2.96)" fill="#333"/><use xlink:href="#path87_fill" transform="translate(16.1 4.2)" fill="#3F3F3F"/><use xlink:href="#path88_fill" transform="translate(16.1 4.87)" fill="#595959"/><use xlink:href="#path89_fill" transform="translate(16.1 4.87)" fill="#666"/><use xlink:href="#path90_fill" transform="translate(16.1 7.59)" fill="#4C4C4C"/><use xlink:href="#path91_fill" transform="translate(16.1 9.24)" fill="#727272"/><use xlink:href="#path92_fill" transform="translate(17.5 9.24)" fill="#4C4C4C"/><use xlink:href="#path93_fill" transform="translate(16.1 9.24)" fill="#333"/><use xlink:href="#path94_fill" transform="translate(16.1 10.89)" fill="#3F3F3F"/><use xlink:href="#path95_fill" transform="translate(16.1 13.04)" fill="#333"/><use xlink:href="#path96_fill" transform="translate(18.6 13.04)" fill="#262626"/><use xlink:href="#path97_fill" transform="translate(16.1 13.88)" fill="#666"/><use xlink:href="#path98_fill" transform="translate(16.1 15.12)" fill="#333"/><use xlink:href="#path99_fill" transform="translate(16.1 17.17)" fill="#4C4C4C"/><use xlink:href="#path100_fill" transform="translate(19.9 15.86)" fill="#333"/><use xlink:href="#path101_fill" transform="translate(16.1 17.77)" fill="#333"/><use xlink:href="#path102_fill" transform="translate(19.9 15.86)" fill="#595959"/><use xlink:href="#path103_fill" transform="translate(23 15.86)" fill="#727272"/><use xlink:href="#path104_fill" transform="translate(24.3 15.86)" fill="#595959"/><use xlink:href="#path105_fill" transform="translate(21.5 15.86)" fill="#3F3F3F"/><use xlink:href="#path106_fill" transform="translate(21.5 17.81)" fill="#4C4C4C"/><defs><path id="path0_fill" d="M1.444 0c1.208 0 1.98.134 2.585.672.504.437.739 1.008.739 1.714 0 .336-.067.672-.269 1.041-.201.336-.503.504-.705.605.168.034.739.168 1.209.638.503.504.604 1.076.604 1.613 0 .639-.168 1.109-.604 1.546-.739.739-1.914.84-2.653.84H0V0h1.444zm0 3.73h.436c.336 0 .84-.034 1.175-.336.336-.303.37-.672.37-.975 0-.269-.034-.571-.336-.84-.336-.302-.739-.336-1.142-.336h-.503V3.73zm0 3.696h.873c.403 0 1.074-.068 1.41-.336.268-.202.47-.572.47-.975 0-.336-.134-.672-.37-.907-.402-.336-.973-.403-1.477-.403h-.906v2.62z"/><path id="path1_fill" d="M1.377 0v3.125c0 .336 0 .705.268.974.168.235.504.37.907.37s.705-.168.906-.37c.235-.302.269-.672.269-.974V0h1.377v3.158c0 .706-.101 1.277-.638 1.781-.538.504-1.276.672-1.948.672-.604 0-1.343-.168-1.88-.672C.1 4.435 0 3.864 0 3.16V0h1.377z"/><path id="path2_fill" d="M3.022 1.58c-.134-.202-.403-.471-.84-.471a.747.747 0 0 0-.436.134.426.426 0 0 0-.134.303c0 .134.067.235.201.302.1.067.168.067.47.235l.705.336c.302.135.605.303.84.504.335.303.436.639.436 1.008 0 .504-.201.907-.537 1.243-.47.47-1.041.605-1.679.605-.37 0-.873-.067-1.276-.336C.436 5.208.168 4.838 0 4.435l1.142-.504c.067.168.201.403.335.504.101.067.269.202.605.202.201 0 .436-.067.57-.168.101-.101.202-.269.202-.437a.557.557 0 0 0-.168-.403c-.168-.168-.37-.235-.604-.336l-.504-.235c-.269-.101-.604-.27-.806-.47-.302-.27-.436-.572-.436-.908 0-.437.168-.874.503-1.176C1.108.235 1.544 0 2.283 0c.437 0 .772.067 1.108.302.202.101.47.336.672.672l-1.041.605z"/><path id="path3_fill" d="M.875 0c.504 0 .873.336.873.806 0 .47-.37.807-.873.807-.504 0-.873-.336-.873-.807C-.032.336.372 0 .875 0zm.671 3.091v5.477H.17V3.091h1.376z"/><path id="path4_fill" d="M0 .134h1.377v.504C1.98.034 2.652 0 2.988 0c1.108 0 1.578.504 1.746.74.235.302.37.671.37 1.511v3.36H3.726V2.587c0-1.377-.57-1.445-1.075-1.445-.604 0-1.242.068-1.242 1.848v2.621H.034V.134H0z"/><path id="path5_fill" d="M5.64 4.368c-.268.403-.604.773-1.007 1.008-.47.269-1.108.403-1.745.403-.806 0-1.444-.168-2.015-.705C.303 4.57 0 3.797 0 2.99 0 2.15.336 1.344.94.74 1.444.268 2.082 0 2.921 0c.94 0 1.545.37 1.914.706.772.739.84 1.747.84 2.318v.168H1.41c.034.403.202.84.504 1.109.336.302.705.336 1.074.336.37 0 .672-.067.94-.269.235-.168.437-.403.538-.605l1.175.605zM4.299 2.15c-.067-.302-.202-.57-.437-.739-.168-.168-.47-.302-.94-.302s-.806.168-.974.336c-.201.168-.335.437-.436.705h2.787z"/><path id="path6_fill" d="M3.022 1.58c-.134-.202-.403-.471-.84-.471a.747.747 0 0 0-.436.134.426.426 0 0 0-.134.303c0 .134.067.235.201.302.1.067.168.067.47.235l.705.336c.302.135.605.303.84.504.335.303.436.639.436 1.008 0 .504-.201.907-.537 1.243-.47.47-1.041.605-1.679.605-.37 0-.873-.067-1.276-.336C.436 5.208.168 4.838 0 4.435l1.142-.504c.067.168.201.403.335.504.101.067.269.202.605.202.201 0 .436-.067.57-.168.101-.101.202-.269.202-.437a.557.557 0 0 0-.168-.403c-.168-.168-.37-.235-.604-.336l-.504-.235c-.269-.101-.604-.27-.806-.47-.302-.27-.436-.572-.436-.908 0-.437.168-.874.503-1.176C1.108.235 1.544 0 2.283 0c.437 0 .772.067 1.108.302.202.101.47.336.672.672l-1.041.605z"/><path id="path7_fill" d="M3.022 1.58c-.134-.202-.403-.471-.84-.471a.747.747 0 0 0-.436.134.426.426 0 0 0-.134.303c0 .134.067.235.201.302.1.067.168.067.47.235l.705.336c.302.135.605.303.84.504.335.303.436.639.436 1.008 0 .504-.201.907-.537 1.243-.47.47-1.041.605-1.679.605-.37 0-.873-.067-1.276-.336C.436 5.208.168 4.838 0 4.435l1.142-.504c.067.168.201.403.335.504.101.067.269.202.605.202.201 0 .436-.067.57-.168.101-.101.202-.269.202-.437a.557.557 0 0 0-.168-.403c-.168-.168-.37-.235-.604-.336l-.504-.235c-.269-.101-.604-.27-.806-.47-.302-.27-.436-.572-.436-.908 0-.437.168-.874.503-1.176C1.108.235 1.544 0 2.283 0c.437 0 .772.067 1.108.302.202.101.47.336.672.672l-1.041.605z"/><path id="path8_fill" d="M1.444 0v7.426h2.753v1.243H0V0h1.444z"/><path id="path9_fill" d="M.875 0c.504 0 .873.336.873.806 0 .47-.37.807-.873.807-.504 0-.873-.336-.873-.807C-.032.336.372 0 .875 0zm.671 3.091v5.477H.17V3.091h1.376z"/><path id="path10_fill" d="M1.981 5.309v4.3H.604v-4.3H0V4.133h.604V2.25c0-.84.235-1.377.571-1.713A2.045 2.045 0 0 1 2.585 0c.303 0 .605.034.873.168v1.243a1.168 1.168 0 0 0-.671-.201c-.168 0-.437.033-.605.201-.067.067-.235.269-.235.639V4.1h1.511v1.175H1.981v.034z"/><path id="path11_fill" d="M5.64 4.368c-.268.403-.604.773-1.007 1.008-.47.269-1.108.403-1.745.403-.806 0-1.444-.168-2.015-.705C.303 4.57 0 3.797 0 2.99 0 2.15.336 1.344.94.74 1.444.268 2.082 0 2.921 0c.94 0 1.545.37 1.914.706.772.739.84 1.747.84 2.318v.168H1.41c.034.403.202.84.504 1.109.336.302.705.336 1.074.336.37 0 .672-.067.94-.269.235-.168.437-.403.538-.605l1.175.605zM4.265 2.15c-.067-.302-.201-.57-.436-.739-.168-.168-.47-.302-.94-.302s-.806.168-.974.336c-.202.168-.336.437-.437.705h2.787z"/><path id="path12_fill" d="M0 .067h.302v.37A.893.893 0 0 1 1.074 0c.605 0 .773.37.84.538C2.082.202 2.417 0 2.82 0c.336 0 .538.1.672.235.235.235.268.538.268.773v1.915h-.302V1.008c0-.202 0-.437-.168-.605a.602.602 0 0 0-.436-.168c-.806 0-.806.773-.806.941v1.747h-.302V1.075c0-.168 0-.84-.672-.84-.537 0-.772.437-.772 1.008v1.68H0V.067z"/><path id="path13_fill" d="M2.652.034h.303v2.89h-.303v-.505a1.417 1.417 0 0 1-1.175.605C.672 3.024 0 2.453 0 1.512 0 .605.604 0 1.477 0c.47 0 .873.168 1.175.571V.034zM.336 1.444c0 .64.436 1.278 1.175 1.278.739 0 1.175-.605 1.175-1.277 0-.874-.671-1.21-1.175-1.21C.907.235.336.672.336 1.445z"/><path id="path14_fill" d="M0 .067h.302v.37A.716.716 0 0 1 .974 0c.067 0 .201 0 .302.067l-.134.269C1.108.302 1.04.269.907.269c-.605 0-.605.773-.605 1.142v1.546H0V.067z"/><path id="path15_fill" d="M.302.034v3.528l1.242-1.244h.37L.638 3.562l1.679 1.646h-.403L.436 3.763l-.167.135v1.276H0V0h.302v.034z"/><path id="path16_fill" d="M.302 1.58c0 .738.571 1.209 1.209 1.209.504 0 .873-.269 1.04-.672l.236.134c-.168.336-.571.773-1.31.773C.537 3.024 0 2.352 0 1.512 0 .504.739 0 1.477 0c.806 0 1.41.638 1.41 1.546H.303v.033zm2.25-.27C2.485.74 2.048.302 1.444.302.839.302.403.74.302 1.31h2.25z"/><path id="path17_fill" d="M.638 1.31v2.621H.336v-2.62H0v-.27h.336V0h.302v1.042h.537v.268H.638z"/><path id="path18_fill" d="M0 .269C0 .1.134 0 .269 0c.134 0 .268.1.268.269A.265.265 0 0 1 .27.538.265.265 0 0 1 0 .268zm.403.974v2.89H.1v-2.89h.302z"/><path id="path19_fill" d="M0 .034h.302v.47C.436.269.705 0 1.242 0c.538 0 .773.302.84.403.134.202.134.47.134.74v1.814h-.302V1.142c0-.201 0-.403-.134-.57-.068-.102-.236-.27-.605-.27-.403 0-.638.202-.739.404C.302.94.27 1.21.27 1.478V2.99H0V.034z"/><path id="path20_fill" d="M2.988.034v2.822c0 1.109-.57 1.714-1.51 1.714C.704 4.57.033 4.133 0 3.326h.302c.067.605.537.975 1.175.975 1.175 0 1.209-1.143 1.209-1.445v-.403a1.473 1.473 0 0 1-1.175.571C.772 3.024.034 2.52.034 1.512.034.672.604 0 1.544 0c.504 0 .907.202 1.142.571V.067h.302V.034zM.302 1.512c0 .706.47 1.243 1.175 1.243.739 0 1.209-.571 1.209-1.277 0-.672-.47-1.243-1.209-1.243C.74.235.302.84.302 1.512z"/><path id="path21_fill" d="M2.652.034h.303v2.89h-.303v-.505a1.417 1.417 0 0 1-1.175.605C.672 3.024 0 2.453 0 1.512 0 .605.604 0 1.477 0c.47 0 .873.168 1.175.571V.034zm-2.35 1.41c0 .64.437 1.278 1.175 1.278.739 0 1.175-.605 1.175-1.277 0-.874-.671-1.21-1.175-1.21C.873.235.302.672.302 1.445z"/><path id="path22_fill" d="M2.988.034v2.822c0 1.109-.57 1.714-1.51 1.714C.704 4.57.033 4.133 0 3.326h.302c.067.605.537.975 1.175.975 1.175 0 1.209-1.143 1.209-1.445v-.403a1.473 1.473 0 0 1-1.175.571C.772 3.024.034 2.52.034 1.512.034.672.604 0 1.544 0c.504 0 .907.202 1.142.571V.067h.302V.034zM.336 1.512c0 .706.47 1.243 1.175 1.243.739 0 1.209-.571 1.209-1.277C2.72.806 2.25.235 1.51.235.773.235.337.84.337 1.512z"/><path id="path23_fill" d="M.302 1.58c0 .738.571 1.209 1.209 1.209.504 0 .873-.269 1.04-.672l.236.134c-.168.336-.571.773-1.31.773C.537 3.024 0 2.352 0 1.512 0 .504.739 0 1.477 0c.806 0 1.41.638 1.41 1.546H.303v.033zm2.283-.27C2.518.74 2.082.302 1.477.302.873.302.437.74.336 1.31h2.25z"/><path id="path24_fill" d="M.034.034h.302v.47C.47.269.739 0 1.276 0c.537 0 .772.302.84.403.134.202.134.47.134.74v1.814h-.303V1.142c0-.201 0-.403-.134-.57-.067-.102-.235-.27-.604-.27C.806.302.57.504.47.706.336.94.302 1.21.302 1.478V2.99H0V.034h.034z"/><path id="path25_fill" d="M2.585.773a1.331 1.331 0 0 0-1.04-.47C.804.302.301.84.301 1.545c0 .84.672 1.243 1.242 1.243.47 0 .873-.269 1.108-.504v.37a1.71 1.71 0 0 1-1.108.403C.638 3.058 0 2.419 0 1.546 0 .672.604 0 1.578 0c.202 0 .638.034 1.04.37v.403h-.033z"/><path id="path26_fill" d="M1.444 2.957L0 0h.336l1.276 2.587L2.72 0h.335l-1.98 4.536H.738l.705-1.58z"/><path id="path27_fill" d="M0 0l2.888 1.646L0 3.326V0z"/><path id="path28_fill" d="M0 0h4.163L1.746 2.218 0 0z"/><path id="path29_fill" d="M4.835 0H2.417L0 2.218 4.835 0z"/><path id="path30_fill" d="M2.115 3.125L4.835 0 0 2.218l2.115.907z"/><path id="path31_fill" d="M0 0l1.746 2.218L0 3.662V0z"/><path id="path32_fill" d="M0 1.445L3.861.907 1.746 0 0 1.445z"/><path id="path33_fill" d="M0 0l.739 1.814 2.384-.57L0 0z"/><path id="path34_fill" d="M0 1.31L3.458 0l-.671 1.646L0 1.31z"/><path id="path35_fill" d="M2.72 0L0 3.125l3.458-1.31L2.72 0z"/><path id="path36_fill" d="M0 2.218L3.055 0 1.242 3.931 0 2.218z"/><path id="path37_fill" d="M.672.571L0 2.218 3.055 0 .672.571z"/><path id="path38_fill" d="M0 3.931l3.693-.974L1.813 0 0 3.931z"/><path id="path39_fill" d="M0 .974L1.41 2.89 3.693 0 0 .974z"/><path id="path40_fill" d="M1.981 1.915L0 2.184.57 0l1.411 1.915z"/><path id="path41_fill" d="M0 2.89l2.048-.37L2.283 0 0 2.89z"/><path id="path42_fill" d="M.974 1.78L0 .37 2.048 0 .974 1.78z"/><path id="path43_fill" d="M0 .269v2.52L1.981 0 0 .269z"/><path id="path44_fill" d="M0 0l.974 1.411L0 2.117V0z"/><path id="path45_fill" d="M0 2.789l1.981-.672V0L0 2.789z"/><path id="path46_fill" d="M0 .84L2.115 0v2.52L0 .84z"/><path id="path47_fill" d="M3.861 0l-1.78 3.46L0 .539 3.861 0z"/><path id="path48_fill" d="M0 3.46l1.78 1.614V0L0 3.46z"/><path id="path49_fill" d="M0 0l2.082 2.923L0 4.47V0z"/><path id="path50_fill" d="M0 1.546L2.619 3.73 2.082 0 0 1.546z"/><path id="path51_fill" d="M.537 3.73L1.78 1.613 0 0l.537 3.73z"/><path id="path52_fill" d="M0 2.117L2.585 0H1.242L0 2.117z"/><path id="path53_fill" d="M0 2.117l4.7-.437L2.586 0 0 2.117z"/><path id="path54_fill" d="M0 0l2.619 2.184L0 4.502V0z"/><path id="path55_fill" d="M0 1.31l3.828.27L3.458 0 0 1.31z"/><path id="path56_fill" d="M.37 2.251L1.98 0 0 .672l.37 1.58z"/><path id="path57_fill" d="M0 2.251L3.895.974 1.612 0 0 2.251z"/><path id="path58_fill" d="M0 1.277l3.559.37L3.895 0 0 1.277z"/><path id="path59_fill" d="M0 1.646l1.88.807L.336 0 0 1.646z"/><path id="path60_fill" d="M0 0l1.612 1.814L3.559.37 0 0z"/><path id="path61_fill" d="M0 1.445L3.828.806 1.948 0 0 1.445z"/><path id="path62_fill" d="M.873.638L0 3.192 4.7 0 .874.638z"/><path id="path63_fill" d="M0 1.378L2.048 0l1.645 3.192L0 1.378z"/><path id="path64_fill" d="M0 1.814l2.652.672V0L0 1.814z"/><path id="path65_fill" d="M0 0l1.645 3.192L2.652.672 0 0z"/><path id="path66_fill" d="M0 1.445l3.861.873V0L0 1.445z"/><path id="path67_fill" d="M0 0l3.861.874-1.947 2.184L0 0z"/><path id="path68_fill" d="M1.914 3.058L0 2.89V0l1.914 3.058z"/><path id="path69_fill" d="M1.914.168L0 4.2V0l1.914.168z"/><path id="path70_fill" d="M0 2.184l1.947.907V0L0 2.184z"/><path id="path71_fill" d="M0 4.032L1.914 0l.974 2.016L0 4.032z"/><path id="path72_fill" d="M2.921 0L0 .773l1.544 1.579L2.921 0z"/><path id="path73_fill" d="M3.693 1.814L.907 3.562 0 0l3.693 1.814z"/><path id="path74_fill" d="M0 0l.974 2.016.973-1.109L0 0z"/><path id="path75_fill" d="M2.888 0L6.11 2.016H0L2.888 0z"/><path id="path76_fill" d="M0 1.109L2.619 0H.974L0 1.109z"/><path id="path77_fill" d="M0 0l.604 3.125.94-1.546L0 0z"/><path id="path78_fill" d="M0 1.109L2.619 0l.604 3.125L0 1.109z"/><path id="path79_fill" d="M0 2.755L7.32 0 2.618.437 0 2.755z"/><path id="path80_fill" d="M0 2.352L1.377 0l.906 3.562L0 2.352z"/><path id="path81_fill" d="M0 1.546l3.223-.336L.94 0 0 1.546z"/><path id="path82_fill" d="M0 0l2.485 1.243L3.828 0H0z"/><path id="path83_fill" d="M0 1.243L1.343 4.2V0L0 1.243z"/><path id="path84_fill" d="M0 0l2.485 1.243L0 2.957V0z"/><path id="path85_fill" d="M0 1.714l3.828 1.243L2.485 0 0 1.714z"/><path id="path86_fill" d="M0 0v1.915l3.828-.672L0 0z"/><path id="path87_fill" d="M0 .672L3.828 2.89V0L0 .672z"/><path id="path88_fill" d="M0 0l3.828 4.368v-2.15L0 0z"/><path id="path89_fill" d="M0 0l2.384 2.722L0 4.368V0z"/><path id="path90_fill" d="M0 1.646h3.828L2.384 0 0 1.646z"/><path id="path91_fill" d="M3.828 0H0l1.41 1.646L3.828 0z"/><path id="path92_fill" d="M0 1.646l2.417 2.15V0L0 1.646z"/><path id="path93_fill" d="M1.41 1.646L0 4.636V0l1.41 1.646z"/><path id="path94_fill" d="M0 2.99l3.828-.84L1.41 0 0 2.99z"/><path id="path95_fill" d="M0 .84l2.485 1.243L3.828 0 0 .84z"/><path id="path96_fill" d="M1.343 0v4.738L0 2.083 1.343 0z"/><path id="path97_fill" d="M0 0l2.485 1.243L0 3.293V0z"/><path id="path98_fill" d="M0 2.05l3.828.604L2.485 0 0 2.05z"/><path id="path99_fill" d="M0 2.554L3.828.604 0 0v2.554z"/><path id="path100_fill" d="M0 1.915L3.123 0H0v1.915z"/><path id="path101_fill" d="M3.828 0l1.578 1.949H0L3.828 0z"/><path id="path102_fill" d="M3.123 0L1.578 3.864 0 1.915 3.123 0z"/><path id="path103_fill" d="M0 0l1.276 1.949L2.988 0H0z"/><path id="path104_fill" d="M0 1.949l1.712 1.915V0L0 1.949z"/><path id="path105_fill" d="M0 3.864l2.82-1.915L1.544 0 0 3.864z"/><path id="path106_fill" d="M0 1.915L2.82 0l1.713 1.915H0z"/></defs></svg>