<svg viewBox="0 0 27 27" xmlns="http://www.w3.org/2000/svg" xmlns:xlink="http://www.w3.org/1999/xlink"><use xlink:href="#path0_fill" transform="translate(14.6 14.62)" fill="#FFF"/><use xlink:href="#path1_fill" transform="translate(0 6.75)" fill="#FFF"/><use xlink:href="#path2_fill" transform="translate(22.1 6.75)" fill="#FFF"/><use xlink:href="#path3_fill" transform="translate(1.1 6.75)" fill="#FFF"/><use xlink:href="#path4_fill" transform="translate(6.8)" fill="#FFF"/><use xlink:href="#path5_fill" transform="translate(13.5)" fill="#FFF"/><use xlink:href="#path6_fill" transform="translate(18 20.25)" fill="#FFF"/><use xlink:href="#path7_fill" transform="translate(20.2 18)" fill="#FFF"/><defs><path id="path0_fill" d="M6.187 0A6.194 6.194 0 0 0 0 6.188a6.194 6.194 0 0 0 6.187 6.187 6.194 6.194 0 0 0 6.188-6.187A6.194 6.194 0 0 0 6.187 0zm0 11.25a5.069 5.069 0 0 1-5.062-5.062 5.069 5.069 0 0 1 5.062-5.063 5.069 5.069 0 0 1 5.063 5.063 5.069 5.069 0 0 1-5.063 5.062z"/><path id="path1_fill" d="M25.313 0H.563a.563.563 0 0 0 0 1.125h24.75a.563.563 0 0 0 0-1.125z"/><path id="path2_fill" d="M2.245.02a.564.564 0 0 0-.69.395L.02 6.043a.562.562 0 1 0 1.086.296L2.64.71a.562.562 0 0 0-.395-.69z"/><path id="path3_fill" d="M11.812 12.375H5.656c-.76 0-1.428-.512-1.629-1.243L1.105.415A.562.562 0 0 0 .02.709l2.923 10.718A2.818 2.818 0 0 0 5.656 13.5h6.156a.563.563 0 0 0 0-1.125z"/><path id="path4_fill" d="M5.374.094a.563.563 0 0 0-.78.156L.094 7a.562.562 0 1 0 .936.624l4.5-6.75a.562.562 0 0 0-.156-.78z"/><path id="path5_fill" d="M5.53 7L1.03.25a.562.562 0 1 0-.936.624l4.5 6.75a.562.562 0 1 0 .936-.623z"/><path id="path6_fill" d="M5.063 0h-4.5a.563.563 0 0 0 0 1.125h4.5a.563.563 0 0 0 0-1.125z"/><path id="path7_fill" d="M.563 0A.563.563 0 0 0 0 .563v4.5a.563.563 0 0 0 1.125 0v-4.5A.563.563 0 0 0 .563 0z"/></defs></svg>