<svg viewBox="0 0 14 14" xmlns="http://www.w3.org/2000/svg" xmlns:xlink="http://www.w3.org/1999/xlink"><use xlink:href="#path0_fill" fill="#FFF"/><defs><path id="path0_fill" d="M7 14a6.845 6.845 0 0 1-1.862-.252 6.977 6.977 0 0 1-4.179-3.213 7.098 7.098 0 0 1-.707-1.673A6.844 6.844 0 0 1 0 7c0-.644.084-1.265.252-1.862A6.979 6.979 0 0 1 3.465.959 7.098 7.098 0 0 1 5.138.252 6.845 6.845 0 0 1 7 0c.961 0 1.869.184 2.723.553a7.083 7.083 0 0 1 2.226 1.498c.63.63 1.13 1.372 1.498 2.226C13.816 5.131 14 6.039 14 7c0 .644-.084 1.265-.252 1.862a6.978 6.978 0 0 1-3.213 4.179 7.1 7.1 0 0 1-1.673.707A6.844 6.844 0 0 1 7 14zm3.374-9.884H3.738a.242.242 0 0 0-.168.063.223.223 0 0 0-.07.175v.742c0 .037.014.056.042.056L7.028 7.14l.028.014c.019 0 .033-.005.042-.014l3.374-1.988a.107.107 0 0 1 .042-.014c.01 0 .023-.005.042-.014.037 0 .056-.019.056-.056v-.714a.223.223 0 0 0-.07-.175.243.243 0 0 0-.168-.063zm-4.76 2.982c.01-.01.014-.023.014-.042 0-.028-.01-.042-.028-.042L3.598 5.866c-.028-.01-.051-.01-.07 0-.019 0-.028.014-.028.042v3.01c0 .028.014.047.042.056h.028c.019 0 .028-.005.028-.014l2.016-1.862zm2.436.224c-.01-.028-.033-.033-.07-.014l-.77.448a.278.278 0 0 1-.294 0l-.672-.378c-.028-.019-.051-.019-.07 0l-2.562 2.38c-.01.01-.014.028-.014.056 0 .01.01.023.028.042a.46.46 0 0 0 .112.028h6.566c.019 0 .037-.01.056-.028 0-.037-.005-.06-.014-.07L8.05 7.322zm2.52-1.512h-.056L8.61 6.944c-.019 0-.028.014-.028.042-.01.01-.005.023.014.042L10.5 9.086c.019.019.033.028.042.028h.028c.028-.028.042-.047.042-.056V5.866c0-.019-.014-.037-.042-.056z"/></defs></svg>