<svg viewBox="0 0 14 14" xmlns="http://www.w3.org/2000/svg" xmlns:xlink="http://www.w3.org/1999/xlink"><use xlink:href="#path0_fill" fill="#FFF"/><defs><path id="path0_fill" d="M7 0a7 7 0 1 0 0 14A7 7 0 0 0 7 0zm3.697 10.214l-.561.56c-.1.1-.393.163-.402.163A6.615 6.615 0 0 1 3.062 4.25s.065-.285.165-.384l.56-.56a.936.936 0 0 1 .875-.208l.118.04c.275.092.564.396.64.677l.282 1.034c.076.281-.026.681-.231.886l-.375.375a3.975 3.975 0 0 0 2.795 2.796l.374-.375c.207-.206.606-.308.887-.232l1.034.283c.28.077.585.364.677.639l.04.12c.091.275-.001.669-.207.873z"/></defs></svg>