<svg viewBox="0 0 30 40" xmlns="http://www.w3.org/2000/svg" xmlns:xlink="http://www.w3.org/1999/xlink"><use xlink:href="#path0_fill" fill="#FFAD45"/><defs><path id="path0_fill" d="M15 0C6.73 0 0 6.606 0 14.726c0 2.119.442 4.14 1.312 6.012 3.75 8.056 10.94 16.563 13.055 18.977a.842.842 0 0 0 1.265 0c2.114-2.414 9.305-10.92 13.056-18.977A14.138 14.138 0 0 0 30 14.727C30 6.607 23.27 0 15 0zm0 22.376c-4.297 0-7.792-3.432-7.792-7.65s3.495-7.65 7.791-7.65 7.792 3.432 7.792 7.65-3.495 7.65-7.792 7.65z"/></defs></svg>