<svg viewBox="0 0 19 20" xmlns="http://www.w3.org/2000/svg" xmlns:xlink="http://www.w3.org/1999/xlink"><use xlink:href="#path0_fill" fill="#FFF"/><defs><path id="path0_fill" d="M13.197 13.056a7.855 7.855 0 0 0 2.033-5.279C15.23 3.496 11.819 0 7.615 0 3.41 0 0 3.496 0 7.777c0 4.282 3.411 7.777 7.615 7.777a7.474 7.474 0 0 0 4.56-1.548l5.662 5.783a.655.655 0 0 0 .965 0 .726.726 0 0 0 0-.997l-5.605-5.736zM1.378 7.777c0-3.507 2.791-6.37 6.237-6.37 3.434 0 6.237 2.851 6.237 6.37 0 3.52-2.791 6.37-6.237 6.37s-6.237-2.863-6.237-6.37z"/></defs></svg>