<svg viewBox="0 0 25 25" xmlns="http://www.w3.org/2000/svg" xmlns:xlink="http://www.w3.org/1999/xlink"><use xlink:href="#path0_fill" fill="#FFF"/><defs><path id="path0_fill" d="M21.34 3.657c-4.874-4.876-12.805-4.876-17.68 0A12.455 12.455 0 0 0 .279 9.872c-.49 2.294-.33 4.67.464 6.872a.509.509 0 1 0 .957-.345 11.515 11.515 0 0 1-.426-6.314A11.44 11.44 0 0 1 4.38 4.377c4.478-4.48 11.763-4.48 16.24 0a11.42 11.42 0 0 1 3.362 7.984 11.428 11.428 0 0 1-3.23 8.125c-.043.046-.086.092-.131.137-4.478 4.479-11.763 4.479-16.24 0a3.805 3.805 0 0 1-.07-.073 5.51 5.51 0 0 1 .003-.445l.005-.101c.004-.068.007-.136.012-.203l.01-.12c.006-.06.01-.12.017-.181l.017-.127.022-.172.021-.13.028-.166.027-.13c.01-.055.021-.109.033-.163l.031-.13.04-.159c.01-.044.023-.087.035-.13l.045-.156.04-.129.05-.152.045-.128a8.753 8.753 0 0 1 .165-.423 7.79 7.79 0 0 1 .25-.533 8.664 8.664 0 0 1 .516-.872 7.65 7.65 0 0 1 .265-.367l.081-.105.102-.125.084-.102.107-.122.088-.098.112-.12.09-.093.117-.116.093-.09c.04-.04.082-.076.124-.114l.094-.086.13-.11.096-.081.137-.109.096-.075c.048-.037.098-.072.147-.108l.093-.068.166-.112.082-.055c.072-.047.146-.093.22-.137l.034-.022c.086-.051.173-.101.261-.15l.092-.048c.058-.031.117-.063.176-.092.038-.02.077-.038.115-.056l.146-.07a4.973 4.973 0 0 0 3.43 1.38 4.973 4.973 0 0 0 3.43-1.38 8.287 8.287 0 0 1 4.073 4.147.509.509 0 1 0 .931-.41 9.175 9.175 0 0 0-4.326-4.538c.56-.821.862-1.79.862-2.79a4.977 4.977 0 0 0-4.97-4.972.509.509 0 0 0 0 1.018 3.958 3.958 0 0 1 3.952 3.953 3.94 3.94 0 0 1-1.02 2.643 3.957 3.957 0 0 1-2.932 1.311 3.957 3.957 0 0 1-2.933-1.31 3.944 3.944 0 0 1 .153-5.454.509.509 0 0 0-.716-.724A4.936 4.936 0 0 0 7.53 9.377c0 1 .302 1.968.86 2.788l-.014.008-.118.061-.18.095-.125.07-.166.096-.126.077-.157.098-.126.083a9.297 9.297 0 0 0-.678.498 10.994 10.994 0 0 0-.366.313 8.921 8.921 0 0 0-.366.347l-.105.107a9.586 9.586 0 0 0-.122.13c-.034.036-.068.072-.1.11-.041.044-.08.09-.12.135l-.094.11-.118.145-.086.109c-.041.052-.08.106-.12.16-.025.033-.051.066-.075.1-.05.07-.1.14-.147.21l-.039.056c-.06.09-.118.18-.175.272l-.057.096-.11.184-.063.116c-.031.056-.063.112-.092.169l-.065.127-.082.164-.061.133-.075.164c-.02.045-.038.091-.057.137a9.074 9.074 0 0 0-.497 1.568l-.037.178-.029.147a9.31 9.31 0 0 0-.03.184 3.37 3.37 0 0 0-.024.145c-.01.063-.017.127-.025.19l-.017.142c-.008.067-.013.134-.02.2l-.011.135-.013.225c-.001.038-.004.075-.006.113a9.45 9.45 0 0 0 .003.707c.001.03.006.059.012.087v.007a.504.504 0 0 0 .027.08.505.505 0 0 0 .042.08l.005.009a.526.526 0 0 0 .05.064l.004.004.067.072c.05.054.102.108.154.161A12.46 12.46 0 0 0 12.5 25a12.46 12.46 0 0 0 8.84-3.657c.053-.053.104-.107.154-.161l.068-.072a12.44 12.44 0 0 0 3.437-8.76 12.432 12.432 0 0 0-3.659-8.693z"/></defs></svg>