<svg viewBox="0 0 15 15" xmlns="http://www.w3.org/2000/svg" xmlns:xlink="http://www.w3.org/1999/xlink"><use xlink:href="#path0_fill" fill="#FFF"/><use xlink:href="#path1_fill" transform="matrix(-1 0 0 1 11 3)" fill="#1A1A1A"/><defs><path id="path0_fill" d="M14.171 7.233c0 3.995-3.172 7.234-7.085 7.234C3.172 14.467 0 11.228 0 7.233S3.172 0 7.086 0c3.913 0 7.085 3.238 7.085 7.233z"/><path id="path1_fill" d="M6.828 1.172A3.97 3.97 0 0 0 4 0a3.97 3.97 0 0 0-2.828 1.172A3.98 3.98 0 0 0 0 4a3.97 3.97 0 0 0 1.172 2.828A3.98 3.98 0 0 0 4 8a3.97 3.97 0 0 0 2.828-1.172A3.98 3.98 0 0 0 8 4a3.97 3.97 0 0 0-1.172-2.828zm.81 2.648H6.087a6.945 6.945 0 0 0-.254-1.738 3.94 3.94 0 0 0 .825-.569c.571.611.935 1.418.98 2.307zm-3.458.36h1.549a6.566 6.566 0 0 1-.227 1.598 4.038 4.038 0 0 0-1.322-.287V4.18zM6.4 1.264a3.637 3.637 0 0 1-.68.472 4.17 4.17 0 0 0-.21-.49 2.878 2.878 0 0 0-.526-.751 3.607 3.607 0 0 1 1.416.769zM4.18.414c.373.084.726.428 1.01.99.077.152.146.314.206.485a3.664 3.664 0 0 1-1.216.273V.415zm1.324 1.82a6.55 6.55 0 0 1 .223 1.588H4.18v-1.3a4.04 4.04 0 0 0 1.324-.289zM3.82 3.82H2.271c.013-.564.09-1.105.224-1.588.418.17.865.268 1.324.287V3.82h.001zM3.822.415v1.747a3.655 3.655 0 0 1-1.216-.273 4.08 4.08 0 0 1 .205-.485c.285-.562.637-.906 1.011-.99zm-.805.08c-.194.192-.37.445-.526.75a4.8 4.8 0 0 0-.21.49 3.691 3.691 0 0 1-.68-.471c.404-.355.886-.62 1.416-.77zM1.344 1.513c.253.226.529.415.824.569a6.882 6.882 0 0 0-.253 1.738H.365c.043-.89.407-1.696.979-2.307zM.364 4.18h1.551c.015.622.103 1.218.256 1.748-.293.152-.57.34-.82.565A3.627 3.627 0 0 1 .363 4.18zm1.244 2.563a3.65 3.65 0 0 1 .676-.469c.062.168.13.33.207.48.156.307.332.559.526.753a3.644 3.644 0 0 1-1.409-.764zm2.214.842c-.374-.083-.726-.427-1.01-.99a4.197 4.197 0 0 1-.203-.474 3.604 3.604 0 0 1 1.213-.271v1.735zM2.5 5.778a6.566 6.566 0 0 1-.227-1.598h1.549v1.31c-.459.02-.904.118-1.322.288zm1.68 1.807V5.85c.421.021.831.112 1.213.27-.06.169-.127.327-.202.476-.284.562-.637.906-1.01.99zm.805-.08a2.9 2.9 0 0 0 .526-.752 4.36 4.36 0 0 0 .207-.48c.24.129.467.285.676.468a3.602 3.602 0 0 1-1.409.764zm1.669-1.012a3.994 3.994 0 0 0-.822-.565 6.93 6.93 0 0 0 .257-1.748h1.55a3.644 3.644 0 0 1-.985 2.313z"/></defs></svg>