<svg viewBox="0 0 97 21" version="1.1" xmlns="http://www.w3.org/2000/svg" xmlns:xlink="http://www.w3.org/1999/xlink">
<g id="Canvas" transform="translate(-21803 -6525)">
<g id="Group">
<g id="Group">
<g id="Vector">
<use xlink:href="#path0_fill" transform="translate(21832.9 6528.56)" fill="#E7E7E8"/>
</g>
<g id="Vector">
<use xlink:href="#path1_fill" transform="translate(21840.1 6531.79)" fill="#E7E7E8"/>
</g>
<g id="Vector">
<use xlink:href="#path2_fill" transform="translate(21846.4 6531.62)" fill="#E7E7E8"/>
</g>
<g id="Vector">
<use xlink:href="#path3_fill" transform="translate(21851.8 6528.7)" fill="#E7E7E8"/>
</g>
<g id="Vector">
<use xlink:href="#path4_fill" transform="translate(21855.1 6531.65)" fill="#E7E7E8"/>
</g>
<g id="Vector">
<use xlink:href="#path5_fill" transform="translate(21861.6 6531.62)" fill="#E7E7E8"/>
</g>
<g id="Vector">
<use xlink:href="#path6_fill" transform="translate(21868.3 6531.62)" fill="#E7E7E8"/>
</g>
<g id="Vector">
<use xlink:href="#path7_fill" transform="translate(21873.4 6531.62)" fill="#E7E7E8"/>
</g>
<g id="Vector">
<use xlink:href="#path8_fill" transform="translate(21882.4 6528.56)" fill="#E7E7E8"/>
</g>
<g id="Vector">
<use xlink:href="#path9_fill" transform="translate(21887.5 6528.7)" fill="#E7E7E8"/>
</g>
<g id="Vector">
<use xlink:href="#path10_fill" transform="translate(21890.4 6527.62)" fill="#E7E7E8"/>
</g>
<g id="Vector">
<use xlink:href="#path11_fill" transform="translate(21894.3 6531.62)" fill="#E7E7E8"/>
</g>
</g>
<g id="Group">
<g id="Vector">
<use xlink:href="#path12_fill" transform="translate(21839.8 6541.4)" fill="#F7F7F7"/>
</g>
<g id="Vector">
<use xlink:href="#path13_fill" transform="translate(21844.4 6541.43)" fill="#F7F7F7"/>
</g>
<g id="Vector">
<use xlink:href="#path14_fill" transform="translate(21848.4 6541.4)" fill="#F7F7F7"/>
</g>
<g id="Vector">
<use xlink:href="#path15_fill" transform="translate(21850.3 6539.15)" fill="#F7F7F7"/>
</g>
<g id="Vector">
<use xlink:href="#path16_fill" transform="translate(21852.9 6541.36)" fill="#F7F7F7"/>
</g>
<g id="Vector">
<use xlink:href="#path17_fill" transform="translate(21856.3 6540.42)" fill="#F7F7F7"/>
</g>
<g id="Vector">
<use xlink:href="#path18_fill" transform="translate(21857.9 6540.22)" fill="#F7F7F7"/>
</g>
<g id="Vector">
<use xlink:href="#path19_fill" transform="translate(21859.4 6541.43)" fill="#F7F7F7"/>
</g>
<g id="Vector">
<use xlink:href="#path20_fill" transform="translate(21862.5 6541.43)" fill="#F7F7F7"/>
</g>
<g id="Vector">
<use xlink:href="#path21_fill" transform="translate(21868 6541.43)" fill="#F7F7F7"/>
</g>
<g id="Vector">
<use xlink:href="#path22_fill" transform="translate(21871.8 6541.43)" fill="#F7F7F7"/>
</g>
<g id="Vector">
<use xlink:href="#path23_fill" transform="translate(21875.7 6541.36)" fill="#F7F7F7"/>
</g>
<g id="Vector">
<use xlink:href="#path24_fill" transform="translate(21879.4 6541.43)" fill="#F7F7F7"/>
</g>
<g id="Vector">
<use xlink:href="#path25_fill" transform="translate(21882.5 6541.36)" fill="#F7F7F7"/>
</g>
<g id="Vector">
<use xlink:href="#path26_fill" transform="translate(21885.5 6541.46)" fill="#F7F7F7"/>
</g>
</g>
<g id="Vector">
<use xlink:href="#path27_fill" transform="translate(21832.9 6541.13)" fill="#7F7F7F"/>
</g>
<g id="Group">
<g id="Group">
<g id="Vector">
<use xlink:href="#path28_fill" transform="translate(21803 6525)" fill="#727272"/>
</g>
<g id="Vector">
<use xlink:href="#path29_fill" transform="translate(21804.7 6525)" fill="#3F3F3F"/>
</g>
<g id="Vector">
<use xlink:href="#path30_fill" transform="translate(21804.7 6525)" fill="#4C4C4C"/>
</g>
<g id="Vector">
<use xlink:href="#path31_fill" transform="translate(21803 6525)" fill="#666666"/>
</g>
<g id="Vector">
<use xlink:href="#path32_fill" transform="translate(21803 6527.22)" fill="#595959"/>
</g>
<g id="Vector">
<use xlink:href="#path33_fill" transform="translate(21809.6 6525)" fill="#3F3F3F"/>
</g>
<g id="Vector">
<use xlink:href="#path34_fill" transform="translate(21806.9 6526.81)" fill="#666666"/>
</g>
<g id="Vector">
<use xlink:href="#path35_fill" transform="translate(21806.9 6525)" fill="#333333"/>
</g>
<g id="Vector">
<use xlink:href="#path36_fill" transform="translate(21809.6 6526.24)" fill="#747374"/>
</g>
<g id="Vector">
<use xlink:href="#path37_fill" transform="translate(21809.6 6526.24)" fill="#4D4C4C"/>
</g>
<g id="Vector">
<use xlink:href="#path38_fill" transform="translate(21810.9 6526.24)" fill="#3F3F3F"/>
</g>
<g id="Vector">
<use xlink:href="#path39_fill" transform="translate(21810.9 6529.2)" fill="#727272"/>
</g>
<g id="Vector">
<use xlink:href="#path40_fill" transform="translate(21810.3 6530.17)" fill="#666666"/>
</g>
<g id="Vector">
<use xlink:href="#path41_fill" transform="translate(21812.3 6529.2)" fill="#666566"/>
</g>
<g id="Vector">
<use xlink:href="#path42_fill" transform="translate(21812.3 6531.72)" fill="#595959"/>
</g>
<g id="Vector">
<use xlink:href="#path43_fill" transform="translate(21810.3 6532.09)" fill="#333333"/>
</g>
<g id="Vector">
<use xlink:href="#path44_fill" transform="translate(21812.3 6532.09)" fill="#4D4C4C"/>
</g>
<g id="Vector">
<use xlink:href="#path45_fill" transform="translate(21810.3 6532.09)" fill="#3F3F3F"/>
</g>
<g id="Vector">
<use xlink:href="#path46_fill" transform="translate(21808.2 6532.36)" fill="#262626"/>
</g>
<g id="Vector">
<use xlink:href="#path47_fill" transform="translate(21803 6528.12)" fill="#333333"/>
</g>
<g id="Vector">
<use xlink:href="#path48_fill" transform="translate(21805.1 6528.12)" fill="#4C4C4C"/>
</g>
<g id="Vector">
<use xlink:href="#path49_fill" transform="translate(21803 6528.66)" fill="#666666"/>
</g>
<g id="Vector">
<use xlink:href="#path50_fill" transform="translate(21803 6531.59)" fill="#3F3F3F"/>
</g>
<g id="Vector">
<use xlink:href="#path51_fill" transform="translate(21805.1 6531.59)" fill="#262626"/>
</g>
<g id="Vector">
<use xlink:href="#path52_fill" transform="translate(21805.6 6533.2)" fill="#333333"/>
</g>
<g id="Vector">
<use xlink:href="#path53_fill" transform="translate(21805.6 6533.2)" fill="#4C4C4C"/>
</g>
<g id="Vector">
<use xlink:href="#path54_fill" transform="translate(21803 6533.13)" fill="#7F7F7F"/>
</g>
<g id="Vector">
<use xlink:href="#path55_fill" transform="translate(21806.9 6534.88)" fill="#7F7F7F"/>
</g>
<g id="Vector">
<use xlink:href="#path56_fill" transform="translate(21810.3 6534.21)" fill="#666566"/>
</g>
<g id="Vector">
<use xlink:href="#path57_fill" transform="translate(21810.7 6534.21)" fill="#3F3F3F"/>
</g>
<g id="Vector">
<use xlink:href="#path58_fill" transform="translate(21810.7 6535.18)" fill="#4C4C4C"/>
</g>
<g id="Vector">
<use xlink:href="#path59_fill" transform="translate(21814.2 6535.18)" fill="#595959"/>
</g>
<g id="Vector">
<use xlink:href="#path60_fill" transform="translate(21810.7 6536.46)" fill="#727272"/>
</g>
<g id="Vector">
<use xlink:href="#path61_fill" transform="translate(21812.3 6536.83)" fill="#3F3F3F"/>
</g>
<g id="Vector">
<use xlink:href="#path62_fill" transform="translate(21811.4 6537.63)" fill="#333333"/>
</g>
<g id="Vector">
<use xlink:href="#path63_fill" transform="translate(21811.4 6539.45)" fill="#727272"/>
</g>
<g id="Vector">
<use xlink:href="#path64_fill" transform="translate(21813.5 6537.63)" fill="#3F3F3F"/>
</g>
<g id="Vector">
<use xlink:href="#path65_fill" transform="translate(21813.5 6539.45)" fill="#595959"/>
</g>
<g id="Vector">
<use xlink:href="#path66_fill" transform="translate(21803 6536.19)" fill="#3F3F3F"/>
</g>
<g id="Vector">
<use xlink:href="#path67_fill" transform="translate(21803 6537.63)" fill="#252626"/>
</g>
<g id="Vector">
<use xlink:href="#path68_fill" transform="translate(21803 6537.63)" fill="#333333"/>
</g>
<g id="Vector">
<use xlink:href="#path69_fill" transform="translate(21803 6540.52)" fill="#3F3F3F"/>
</g>
<g id="Vector">
<use xlink:href="#path70_fill" transform="translate(21804.9 6538.51)" fill="#666666"/>
</g>
<g id="Vector">
<use xlink:href="#path71_fill" transform="translate(21803 6540.69)" fill="#4D4B4B"/>
</g>
<g id="Vector">
<use xlink:href="#path72_fill" transform="translate(21808.5 6540.83)" fill="#4B4C4C"/>
</g>
<g id="Vector">
<use xlink:href="#path73_fill" transform="translate(21811.4 6540.83)" fill="#333333"/>
</g>
<g id="Vector">
<use xlink:href="#path74_fill" transform="translate(21804.9 6540.69)" fill="#575959"/>
</g>
<g id="Vector">
<use xlink:href="#path75_fill" transform="translate(21803 6542.71)" fill="#282828"/>
</g>
<g id="Vector">
<use xlink:href="#path76_fill" transform="translate(21805.9 6541.6)" fill="#666566"/>
</g>
<g id="Vector">
<use xlink:href="#path77_fill" transform="translate(21808.5 6541.6)" fill="#333333"/>
</g>
<g id="Vector">
<use xlink:href="#path78_fill" transform="translate(21805.9 6541.6)" fill="#4C4C4C"/>
</g>
<g id="Vector">
<use xlink:href="#path79_fill" transform="translate(21803 6534.88)" fill="#666666"/>
</g>
<g id="Vector">
<use xlink:href="#path80_fill" transform="translate(21810.1 6540.83)" fill="#595959"/>
</g>
<g id="Vector">
<use xlink:href="#path81_fill" transform="translate(21809.1 6543.18)" fill="#666666"/>
</g>
</g>
<g id="Group">
<g id="Vector">
<use xlink:href="#path82_fill" transform="translate(21819.1 6525)" fill="#333333"/>
</g>
<g id="Vector">
<use xlink:href="#path83_fill" transform="translate(21821.6 6525)" fill="#3F3F3F"/>
</g>
<g id="Vector">
<use xlink:href="#path84_fill" transform="translate(21819.1 6525)" fill="#727272"/>
</g>
<g id="Vector">
<use xlink:href="#path85_fill" transform="translate(21819.1 6526.24)" fill="#595958"/>
</g>
<g id="Vector">
<use xlink:href="#path86_fill" transform="translate(21819.1 6527.96)" fill="#333333"/>
</g>
<g id="Vector">
<use xlink:href="#path87_fill" transform="translate(21819.1 6529.2)" fill="#3F3F3F"/>
</g>
<g id="Vector">
<use xlink:href="#path88_fill" transform="translate(21819.1 6529.87)" fill="#595959"/>
</g>
<g id="Vector">
<use xlink:href="#path89_fill" transform="translate(21819.1 6529.87)" fill="#666666"/>
</g>
<g id="Vector">
<use xlink:href="#path90_fill" transform="translate(21819.1 6532.59)" fill="#4C4C4C"/>
</g>
<g id="Vector">
<use xlink:href="#path91_fill" transform="translate(21819.1 6534.24)" fill="#727272"/>
</g>
<g id="Vector">
<use xlink:href="#path92_fill" transform="translate(21820.5 6534.24)" fill="#4C4C4C"/>
</g>
<g id="Vector">
<use xlink:href="#path93_fill" transform="translate(21819.1 6534.24)" fill="#333333"/>
</g>
<g id="Vector">
<use xlink:href="#path94_fill" transform="translate(21819.1 6535.89)" fill="#3F3F3F"/>
</g>
<g id="Vector">
<use xlink:href="#path95_fill" transform="translate(21819.1 6538.04)" fill="#333333"/>
</g>
<g id="Vector">
<use xlink:href="#path96_fill" transform="translate(21821.6 6538.04)" fill="#262626"/>
</g>
<g id="Vector">
<use xlink:href="#path97_fill" transform="translate(21819.1 6538.88)" fill="#666666"/>
</g>
<g id="Vector">
<use xlink:href="#path98_fill" transform="translate(21819.1 6540.12)" fill="#333333"/>
</g>
<g id="Vector">
<use xlink:href="#path99_fill" transform="translate(21819.1 6542.17)" fill="#4C4C4C"/>
</g>
<g id="Vector">
<use xlink:href="#path100_fill" transform="translate(21822.9 6540.86)" fill="#333333"/>
</g>
<g id="Vector">
<use xlink:href="#path101_fill" transform="translate(21819.1 6542.77)" fill="#333333"/>
</g>
<g id="Vector">
<use xlink:href="#path102_fill" transform="translate(21822.9 6540.86)" fill="#595959"/>
</g>
<g id="Vector">
<use xlink:href="#path103_fill" transform="translate(21826 6540.86)" fill="#727272"/>
</g>
<g id="Vector">
<use xlink:href="#path104_fill" transform="translate(21827.3 6540.86)" fill="#595959"/>
</g>
<g id="Vector">
<use xlink:href="#path105_fill" transform="translate(21824.5 6540.86)" fill="#3F3F3F"/>
</g>
<g id="Vector">
<use xlink:href="#path106_fill" transform="translate(21824.5 6542.81)" fill="#4C4C4C"/>
</g>
</g>
</g>
</g>
</g>
<defs>
<path id="path0_fill" d="M 1.44375 -2.05078e-06C 2.65247 -2.05078e-06 3.42471 0.134398 4.02908 0.671998C 4.53271 1.1088 4.76774 1.68 4.76774 2.3856C 4.76774 2.7216 4.70059 3.0576 4.49913 3.4272C 4.29768 3.7632 3.9955 3.9312 3.79404 4.032C 3.96192 4.0656 4.53271 4.19999 5.00277 4.67039C 5.5064 5.17439 5.60713 5.7456 5.60713 6.2832C 5.60713 6.9216 5.43925 7.392 5.00277 7.8288C 4.2641 8.568 3.08896 8.6688 2.35029 8.6688L 0 8.6688L 0 -2.05078e-06L 1.44375 -2.05078e-06ZM 1.44375 3.7296L 1.88024 3.7296C 2.21599 3.7296 2.71963 3.696 3.05538 3.3936C 3.39114 3.0912 3.42472 2.7216 3.42472 2.4192C 3.42472 2.1504 3.39114 1.848 3.08896 1.5792C 2.75321 1.2768 2.35029 1.2432 1.94738 1.2432L 1.44375 1.2432L 1.44375 3.7296ZM 1.44375 7.4256L 2.31672 7.4256C 2.71962 7.4256 3.39114 7.3584 3.7269 7.0896C 3.9955 6.888 4.19695 6.5184 4.19695 6.1152C 4.19695 5.7792 4.06265 5.4432 3.82762 5.208C 3.42471 4.872 2.85393 4.8048 2.35029 4.8048L 1.44375 4.8048L 1.44375 7.4256Z"/>
<path id="path1_fill" d="M 1.3766 0L 1.3766 3.12479C 1.3766 3.46079 1.3766 3.8304 1.6452 4.0992C 1.81308 4.3344 2.14884 4.46879 2.55175 4.46879C 2.95466 4.46879 3.25684 4.3008 3.45829 4.0992C 3.69332 3.7968 3.7269 3.42719 3.7269 3.12479L 3.7269 0L 5.1035 0L 5.1035 3.1584C 5.1035 3.864 5.00277 4.4352 4.46556 4.9392C 3.92835 5.4432 3.18968 5.6112 2.51817 5.6112C 1.91381 5.6112 1.17514 5.4432 0.637933 4.9392C 0.100723 4.4352 -2.04929e-06 3.864 -2.04929e-06 3.1584L -2.04929e-06 0L 1.3766 0Z"/>
<path id="path2_fill" d="M 3.02181 1.5792C 2.8875 1.3776 2.6189 1.1088 2.18241 1.1088C 1.98096 1.1088 1.84666 1.176 1.74593 1.2432C 1.67878 1.3104 1.61163 1.4112 1.61163 1.5456C 1.61163 1.68 1.67878 1.7808 1.81308 1.848C 1.91381 1.9152 1.98097 1.9152 2.28315 2.0832L 2.98823 2.4192C 3.29041 2.5536 3.59259 2.7216 3.82762 2.9232C 4.16337 3.2256 4.26411 3.5616 4.26411 3.9312C 4.26411 4.4352 4.06265 4.8384 3.7269 5.1744C 3.25684 5.6448 2.68605 5.7792 2.04811 5.7792C 1.67878 5.7792 1.17515 5.712 0.772244 5.4432C 0.436487 5.208 0.167876 4.8384 -2.04929e-06 4.4352L 1.14157 3.9312C 1.20872 4.0992 1.34302 4.3344 1.47732 4.4352C 1.57805 4.5024 1.74593 4.63679 2.08169 4.63679C 2.28314 4.63679 2.51817 4.56959 2.65247 4.46879C 2.7532 4.36799 2.85393 4.2 2.85393 4.032C 2.85393 3.864 2.78678 3.72959 2.68605 3.62879C 2.51817 3.46079 2.31672 3.39359 2.08169 3.29279L 1.57806 3.0576C 1.30945 2.9568 0.973697 2.7888 0.772244 2.5872C 0.470063 2.3184 0.335754 2.016 0.335754 1.68C 0.335754 1.2432 0.503632 0.8064 0.839389 0.504C 1.10799 0.2352 1.54448 0 2.28315 0C 2.71963 0 3.05538 0.0671979 3.39114 0.302398C 3.59259 0.403198 3.8612 0.638398 4.06265 0.974398L 3.02181 1.5792Z"/>
<path id="path3_fill" d="M 0.874921 -4.10156e-06C 1.37856 -4.10156e-06 1.74789 0.336004 1.74789 0.806404C 1.74789 1.2768 1.37856 1.6128 0.874921 1.6128C 0.371287 1.6128 0.0019525 1.2768 0.0019525 0.806404C -0.0316231 0.336004 0.371287 -4.10156e-06 0.874921 -4.10156e-06ZM 1.54643 3.0912L 1.54643 8.56799L 0.169831 8.56799L 0.169831 3.0912L 1.54643 3.0912Z"/>
<path id="path4_fill" d="M 2.04929e-06 0.1344L 1.37661 0.1344L 1.37661 0.6384C 1.98097 0.0336 2.65247 2.05078e-06 2.98823 2.05078e-06C 4.09623 2.05078e-06 4.56629 0.503996 4.73417 0.739196C 4.9692 1.0416 5.10349 1.4112 5.10349 2.2512L 5.10349 5.61119L 3.7269 5.61119L 3.7269 2.5872C 3.7269 1.2096 3.15611 1.1424 2.65247 1.1424C 2.04811 1.1424 1.41017 1.2096 1.41017 2.9904L 1.41017 5.61119L 0.0335797 5.61119L 0.0335797 0.1344L 2.04929e-06 0.1344Z"/>
<path id="path5_fill" d="M 5.6407 4.368C 5.3721 4.7712 5.03634 5.1408 4.63343 5.376C 4.16337 5.6448 3.52544 5.7792 2.88751 5.7792C 2.08169 5.7792 1.44375 5.6112 0.872968 5.0736C 0.302183 4.5696 0 3.7968 0 2.9904C 0 2.1504 0.335752 1.344 0.940114 0.739204C 1.44375 0.268804 2.08169 0 2.92108 0C 3.8612 0 4.46556 0.369602 4.83489 0.705602C 5.60713 1.4448 5.67428 2.4528 5.67428 3.024L 5.67428 3.192L 1.41018 3.192C 1.44376 3.5952 1.61163 4.03199 1.91382 4.30079C 2.24957 4.60319 2.6189 4.63679 2.98823 4.63679C 3.35756 4.63679 3.65975 4.5696 3.92835 4.368C 4.16338 4.2 4.36483 3.9648 4.46555 3.7632L 5.6407 4.368ZM 4.29768 2.1504C 4.23053 1.848 4.09623 1.5792 3.8612 1.4112C 3.69332 1.2432 3.39114 1.1088 2.92108 1.1088C 2.45103 1.1088 2.11526 1.2768 1.94738 1.4448C 1.74593 1.6128 1.61163 1.8816 1.5109 2.1504L 4.29768 2.1504Z"/>
<path id="path6_fill" d="M 3.02181 1.5792C 2.8875 1.3776 2.6189 1.1088 2.18242 1.1088C 1.98096 1.1088 1.84666 1.176 1.74594 1.2432C 1.67879 1.3104 1.61163 1.4112 1.61163 1.5456C 1.61163 1.68 1.67878 1.7808 1.81308 1.848C 1.91381 1.9152 1.98096 1.9152 2.28314 2.0832L 2.98823 2.4192C 3.29041 2.5536 3.59259 2.7216 3.82762 2.9232C 4.16338 3.2256 4.26411 3.5616 4.26411 3.9312C 4.26411 4.4352 4.06265 4.8384 3.7269 5.1744C 3.25684 5.6448 2.68605 5.7792 2.04812 5.7792C 1.67878 5.7792 1.17514 5.712 0.772235 5.4432C 0.436479 5.208 0.167878 4.8384 0 4.4352L 1.14157 3.9312C 1.20872 4.0992 1.34302 4.3344 1.47733 4.4352C 1.57805 4.5024 1.74594 4.63679 2.08169 4.63679C 2.28315 4.63679 2.51817 4.56959 2.65247 4.46879C 2.7532 4.36799 2.85393 4.2 2.85393 4.032C 2.85393 3.864 2.78678 3.72959 2.68605 3.62879C 2.51817 3.46079 2.31672 3.39359 2.08169 3.29279L 1.57806 3.0576C 1.30945 2.9568 0.973689 2.7888 0.772235 2.5872C 0.470055 2.3184 0.335756 2.016 0.335756 1.68C 0.335756 1.2432 0.503635 0.8064 0.839391 0.504C 1.108 0.2352 1.54447 0 2.28314 0C 2.71962 0 3.05538 0.0671979 3.39114 0.302398C 3.59259 0.403198 3.8612 0.638398 4.06265 0.974398L 3.02181 1.5792Z"/>
<path id="path7_fill" d="M 3.02181 1.5792C 2.88751 1.3776 2.6189 1.1088 2.18242 1.1088C 1.98096 1.1088 1.84666 1.176 1.74593 1.2432C 1.67878 1.3104 1.61163 1.4112 1.61163 1.5456C 1.61163 1.68 1.67878 1.7808 1.81308 1.848C 1.91381 1.9152 1.98096 1.9152 2.28314 2.0832L 2.98823 2.4192C 3.29041 2.5536 3.59259 2.7216 3.82762 2.9232C 4.16338 3.2256 4.2641 3.5616 4.2641 3.9312C 4.2641 4.4352 4.06266 4.8384 3.7269 5.1744C 3.25684 5.6448 2.68605 5.7792 2.04812 5.7792C 1.67879 5.7792 1.17515 5.712 0.772238 5.4432C 0.436481 5.208 0.16788 4.8384 2.04929e-06 4.4352L 1.14157 3.9312C 1.20872 4.0992 1.34303 4.3344 1.47733 4.4352C 1.57805 4.5024 1.74593 4.63679 2.08169 4.63679C 2.28314 4.63679 2.51817 4.56959 2.65248 4.46879C 2.7532 4.36799 2.85393 4.2 2.85393 4.032C 2.85393 3.864 2.78678 3.72959 2.68605 3.62879C 2.51817 3.46079 2.31671 3.39359 2.08169 3.29279L 1.57805 3.0576C 1.30945 2.9568 0.973691 2.7888 0.772238 2.5872C 0.470057 2.3184 0.335758 2.016 0.335758 1.68C 0.335758 1.2432 0.503637 0.8064 0.839393 0.504C 1.108 0.2352 1.54448 0 2.28314 0C 2.71962 0 3.05539 0.0671979 3.39114 0.302398C 3.5926 0.403198 3.8612 0.638398 4.06266 0.974398L 3.02181 1.5792Z"/>
<path id="path8_fill" d="M 1.44375 -2.05078e-06L 1.44375 7.4256L 4.19695 7.4256L 4.19695 8.6688L 0 8.6688L 0 -2.05078e-06L 1.44375 -2.05078e-06Z"/>
<path id="path9_fill" d="M 0.874931 -4.10156e-06C 1.37857 -4.10156e-06 1.74789 0.336004 1.74789 0.806404C 1.74789 1.2768 1.37857 1.6128 0.874931 1.6128C 0.371297 1.6128 0.0019525 1.2768 0.0019525 0.806404C -0.0316231 0.336004 0.371297 -4.10156e-06 0.874931 -4.10156e-06ZM 1.54644 3.0912L 1.54644 8.56799L 0.169831 8.56799L 0.169831 3.0912L 1.54644 3.0912Z"/>
<path id="path10_fill" d="M 1.98097 5.3088L 1.98097 9.6096L 0.604353 9.6096L 0.604353 5.3088L -4.09859e-06 5.3088L -4.09859e-06 4.1328L 0.604353 4.1328L 0.604353 2.25119C 0.604353 1.4112 0.839387 0.873604 1.17514 0.537604C 1.44375 0.302404 1.88024 2.05078e-06 2.58532 2.05078e-06C 2.8875 2.05078e-06 3.18968 0.033602 3.45828 0.168002L 3.45828 1.4112C 3.18968 1.2432 2.98822 1.2096 2.78677 1.2096C 2.61889 1.2096 2.35029 1.2432 2.18241 1.4112C 2.11526 1.4784 1.94738 1.68 1.94738 2.0496L 1.94738 4.09919L 3.45828 4.09919L 3.45828 5.27519L 1.98097 5.27519L 1.98097 5.3088Z"/>
<path id="path11_fill" d="M 5.6407 4.368C 5.3721 4.7712 5.03634 5.1408 4.63343 5.376C 4.16337 5.6448 3.52543 5.7792 2.8875 5.7792C 2.08168 5.7792 1.44374 5.6112 0.872958 5.0736C 0.302172 4.5696 3.81711e-14 3.7968 3.81711e-14 2.9904C 3.81711e-14 2.1504 0.335752 1.344 0.940114 0.739204C 1.44375 0.268804 2.08169 0 2.92108 0C 3.8612 0 4.46557 0.369602 4.8349 0.705602C 5.60714 1.4448 5.67429 2.4528 5.67429 3.024L 5.67429 3.192L 1.41018 3.192C 1.44376 3.5952 1.61163 4.03199 1.91382 4.30079C 2.24957 4.60319 2.61891 4.63679 2.98824 4.63679C 3.35757 4.63679 3.65975 4.5696 3.92835 4.368C 4.16338 4.2 4.36483 3.9648 4.46555 3.7632L 5.6407 4.368ZM 4.26411 2.1504C 4.19696 1.848 4.06266 1.5792 3.82763 1.4112C 3.65975 1.2432 3.35755 1.1088 2.8875 1.1088C 2.41744 1.1088 2.08169 1.2768 1.91382 1.4448C 1.71236 1.6128 1.57806 1.8816 1.47734 2.1504L 4.26411 2.1504Z"/>
<path id="path12_fill" d="M 2.04929e-06 0.0671959L 0.302181 0.0671959L 0.302181 0.436798C 0.53721 0.0671979 0.872962 2.05078e-06 1.07442 2.05078e-06C 1.67878 2.05078e-06 1.84666 0.369604 1.91381 0.537604C 2.08169 0.201604 2.41745 2.05078e-06 2.82035 2.05078e-06C 3.15611 2.05078e-06 3.35756 0.100796 3.49187 0.235196C 3.7269 0.470396 3.76047 0.772802 3.76047 1.008L 3.76047 2.92319L 3.45829 2.92319L 3.45829 1.008C 3.45829 0.806402 3.45829 0.571196 3.29041 0.403196C 3.15611 0.268796 2.98823 0.235196 2.85393 0.235196C 2.04812 0.235196 2.04812 1.008 2.04812 1.176L 2.04812 2.92319L 1.74593 2.92319L 1.74593 1.0752C 1.74593 0.907196 1.74593 0.235196 1.07442 0.235196C 0.537206 0.235196 0.302181 0.671996 0.302181 1.2432L 0.302181 2.92319L 2.04929e-06 2.92319L 2.04929e-06 0.0671959Z"/>
<path id="path13_fill" d="M 2.65248 0.0335959L 2.95466 0.0335959L 2.95466 2.9232L 2.65248 2.9232L 2.65248 2.4192C 2.3503 2.856 1.88024 3.024 1.47733 3.024C 0.671517 3.024 -4.09859e-06 2.4528 -4.09859e-06 1.512C -4.09859e-06 0.604804 0.604365 4.10156e-06 1.47733 4.10156e-06C 1.94739 4.10156e-06 2.3503 0.167998 2.65248 0.571198L 2.65248 0.0335959ZM 0.335752 1.4448C 0.335752 2.0832 0.772235 2.7216 1.5109 2.7216C 2.24956 2.7216 2.68605 2.1168 2.68605 1.4448C 2.68605 0.5712 2.01453 0.235198 1.5109 0.235198C 0.906538 0.235198 0.335752 0.672 0.335752 1.4448Z"/>
<path id="path14_fill" d="M -4.09859e-06 0.0671959L 0.302185 0.0671959L 0.302185 0.436798C 0.402912 0.201598 0.637941 2.05078e-06 0.973697 2.05078e-06C 1.04085 2.05078e-06 1.17515 -4.10056e-06 1.27588 0.0671959L 1.14158 0.336002C 1.108 0.302402 1.04084 0.268798 0.906542 0.268798C 0.302181 0.268798 0.302185 1.0416 0.302185 1.4112L 0.302185 2.9568L -4.09859e-06 2.9568L -4.09859e-06 0.0671959Z"/>
<path id="path15_fill" d="M 0.302179 0.0336L 0.302179 3.5616L 1.54448 2.3184L 1.91382 2.3184L 0.637935 3.5616L 2.31672 5.208L 1.91382 5.208L 0.436479 3.7632L 0.268601 3.8976L 0.268601 5.17439L 0 5.17439L 0 -2.05078e-06L 0.302179 -2.05078e-06L 0.302179 0.0336Z"/>
<path id="path16_fill" d="M 0.302179 1.5792C 0.302179 2.3184 0.872966 2.78879 1.5109 2.78879C 2.01454 2.78879 2.38387 2.51999 2.55175 2.1168L 2.78677 2.2512C 2.6189 2.5872 2.21599 3.024 1.47733 3.024C 0.537208 3.024 -1.90855e-14 2.352 -1.90855e-14 1.512C -1.90855e-14 0.504 0.738662 0 1.47733 0C 2.28314 0 2.88751 0.638402 2.88751 1.5456L 0.302179 1.5456L 0.302179 1.5792ZM 2.55175 1.3104C 2.4846 0.739198 2.04811 0.302398 1.44375 0.302398C 0.839387 0.302398 0.402906 0.739198 0.302179 1.3104L 2.55175 1.3104Z"/>
<path id="path17_fill" d="M 0.637939 1.3104L 0.637939 3.9312L 0.33576 3.9312L 0.33576 1.3104L 4.09859e-06 1.3104L 4.09859e-06 1.0416L 0.33576 1.0416L 0.33576 4.10156e-06L 0.637939 4.10156e-06L 0.637939 1.0416L 1.17515 1.0416L 1.17515 1.3104L 0.637939 1.3104Z"/>
<path id="path18_fill" d="M 2.04929e-06 0.268798C 2.04929e-06 0.100798 0.1343 2.05078e-06 0.268603 2.05078e-06C 0.402906 2.05078e-06 0.537214 0.100798 0.537214 0.268798C 0.537214 0.436798 0.402906 0.537604 0.268603 0.537604C 0.1343 0.537604 2.04929e-06 0.436798 2.04929e-06 0.268798ZM 0.402903 1.2432L 0.402903 4.1328L 0.100725 4.1328L 0.100725 1.2432L 0.402903 1.2432Z"/>
<path id="path19_fill" d="M 0 0.0335959L 0.302179 0.0335959L 0.302179 0.504004C 0.436481 0.268804 0.705092 4.10156e-06 1.2423 4.10156e-06C 1.77951 4.10156e-06 2.01454 0.302398 2.08169 0.403198C 2.216 0.604798 2.21599 0.873602 2.21599 1.1424L 2.21599 2.9568L 1.91382 2.9568L 1.91382 1.1424C 1.91382 0.940802 1.91381 0.739198 1.7795 0.571198C 1.71235 0.470398 1.54448 0.302402 1.17515 0.302402C 0.77224 0.302402 0.537206 0.503996 0.436479 0.705596C 0.302177 0.940796 0.268601 1.2096 0.268601 1.4784L 0.268601 2.9904L 0 2.9904L 0 0.0335959Z"/>
<path id="path20_fill" d="M 2.98823 0.0335959L 2.98823 2.856C 2.98823 3.9648 2.41745 4.56959 1.47733 4.56959C 0.705088 4.56959 0.0335777 4.1328 2.04929e-06 3.3264L 0.302181 3.3264C 0.369332 3.9312 0.839391 4.3008 1.47733 4.3008C 2.65248 4.3008 2.68605 3.1584 2.68605 2.856L 2.68605 2.4528C 2.38387 2.856 1.91381 3.024 1.51091 3.024C 0.772242 3.024 0.0335797 2.52 0.0335797 1.512C 0.0335797 0.672004 0.604366 4.10156e-06 1.54448 4.10156e-06C 2.04812 4.10156e-06 2.45102 0.201598 2.68605 0.571198L 2.68605 0.0671979L 2.98823 0.0671979L 2.98823 0.0335959ZM 0.302181 1.512C 0.302181 2.2176 0.77224 2.7552 1.47733 2.7552C 2.21599 2.7552 2.68605 2.184 2.68605 1.4784C 2.68605 0.806402 2.21599 0.235198 1.47733 0.235198C 0.738664 0.235198 0.302181 0.840004 0.302181 1.512Z"/>
<path id="path21_fill" d="M 2.65248 0.0335959L 2.95466 0.0335959L 2.95466 2.9232L 2.65248 2.9232L 2.65248 2.4192C 2.3503 2.856 1.88024 3.024 1.47733 3.024C 0.671515 3.024 4.09859e-06 2.4528 4.09859e-06 1.512C 4.09859e-06 0.604804 0.604364 4.10156e-06 1.47733 4.10156e-06C 1.94739 4.10156e-06 2.3503 0.167998 2.65248 0.571198L 2.65248 0.0335959ZM 0.302183 1.4448C 0.302183 2.0832 0.738666 2.7216 1.47733 2.7216C 2.21599 2.7216 2.65248 2.1168 2.65248 1.4448C 2.65248 0.5712 1.98096 0.235198 1.47733 0.235198C 0.872969 0.235198 0.302183 0.672 0.302183 1.4448Z"/>
<path id="path22_fill" d="M 2.98823 0.0335959L 2.98823 2.856C 2.98823 3.9648 2.41744 4.56959 1.47733 4.56959C 0.705086 4.56959 0.0335756 4.1328 0 3.3264L 0.302179 3.3264C 0.36933 3.9312 0.839389 4.3008 1.47733 4.3008C 2.65247 4.3008 2.68605 3.1584 2.68605 2.856L 2.68605 2.4528C 2.38387 2.856 1.91381 3.024 1.5109 3.024C 0.77224 3.024 0.0335777 2.52 0.0335777 1.512C 0.0335777 0.672004 0.604363 4.10156e-06 1.54448 4.10156e-06C 2.04812 4.10156e-06 2.45102 0.201598 2.68605 0.571198L 2.68605 0.0671979L 2.98823 0.0671979L 2.98823 0.0335959ZM 0.335756 1.512C 0.335756 2.2176 0.805815 2.7552 1.5109 2.7552C 2.24957 2.7552 2.71963 2.184 2.71963 1.4784C 2.71963 0.806402 2.24957 0.235198 1.5109 0.235198C 0.77224 0.235198 0.335756 0.840004 0.335756 1.512Z"/>
<path id="path23_fill" d="M 0.302179 1.5792C 0.302179 2.3184 0.872966 2.78879 1.5109 2.78879C 2.01454 2.78879 2.38387 2.51999 2.55175 2.1168L 2.78677 2.2512C 2.6189 2.5872 2.21599 3.024 1.47733 3.024C 0.537208 3.024 -1.90855e-14 2.352 -1.90855e-14 1.512C -1.90855e-14 0.504 0.738662 0 1.47733 0C 2.28314 0 2.88751 0.638402 2.88751 1.5456L 0.302179 1.5456L 0.302179 1.5792ZM 2.58533 1.3104C 2.51818 0.739198 2.08169 0.302398 1.47733 0.302398C 0.872964 0.302398 0.436483 0.739198 0.335756 1.3104L 2.58533 1.3104Z"/>
<path id="path24_fill" d="M 0.0335797 0.0335959L 0.335758 0.0335959L 0.335758 0.504004C 0.470061 0.268804 0.738662 4.10156e-06 1.27587 4.10156e-06C 1.81308 4.10156e-06 2.04811 0.302398 2.11526 0.403198C 2.24957 0.604798 2.24956 0.873602 2.24956 1.1424L 2.24956 2.9568L 1.94738 2.9568L 1.94738 1.1424C 1.94738 0.940802 1.94739 0.739198 1.81308 0.571198C 1.74593 0.470398 1.57806 0.302402 1.20873 0.302402C 0.805819 0.302402 0.570786 0.503996 0.470059 0.705596C 0.335756 0.940796 0.302181 1.2096 0.302181 1.4784L 0.302181 2.9904L 2.04929e-06 2.9904L 2.04929e-06 0.0335959L 0.0335797 0.0335959Z"/>
<path id="path25_fill" d="M 2.58532 0.772796C 2.38386 0.537596 2.04811 0.302398 1.54448 0.302398C 0.805815 0.302398 0.302177 0.840002 0.302177 1.5456C 0.302177 2.3856 0.973693 2.78879 1.54448 2.78879C 2.01454 2.78879 2.41744 2.51999 2.65247 2.2848L 2.65247 2.6544C 2.45102 2.8224 2.08169 3.0576 1.54448 3.0576C 0.637937 3.0576 -2.04929e-06 2.4192 -2.04929e-06 1.5456C -2.04929e-06 0.672002 0.604353 0 1.57805 0C 1.7795 0 2.216 0.033602 2.6189 0.369602L 2.6189 0.772796L 2.58532 0.772796Z"/>
<path id="path26_fill" d="M 1.44375 2.9568L 4.09859e-06 -4.10156e-06L 0.33576 -4.10156e-06L 1.61163 2.5872L 2.71962 -4.10156e-06L 3.05538 -4.10156e-06L 1.07443 4.53599L 0.738672 4.53599L 1.44375 2.9568Z"/>
<path id="path27_fill" d="M 0 -4.10156e-06L 2.88751 1.6464L 0 3.3264L 0 -4.10156e-06Z"/>
<path id="path28_fill" d="M 0 -4.10156e-06L 4.16338 -4.10156e-06L 1.74594 2.2176L 0 -4.10156e-06Z"/>
<path id="path29_fill" d="M 4.83489 -4.10156e-06L 2.41744 -4.10156e-06L 4.09859e-06 2.2176L 4.83489 -4.10156e-06Z"/>
<path id="path30_fill" d="M 2.11526 3.1248L 4.83489 -4.10156e-06L 4.09859e-06 2.2176L 2.11526 3.1248Z"/>
<path id="path31_fill" d="M 0 -4.10156e-06L 1.74594 2.2176L 0 3.6624L 0 -4.10156e-06Z"/>
<path id="path32_fill" d="M 0 1.4448L 3.8612 0.907202L 1.74594 -2.05078e-06L 0 1.4448Z"/>
<path id="path33_fill" d="M 2.04929e-06 -4.10156e-06L 0.73866 1.8144L 3.12253 1.2432L 2.04929e-06 -4.10156e-06Z"/>
<path id="path34_fill" d="M 0 1.3104L 3.45829 4.10156e-06L 2.78677 1.6464L 0 1.3104Z"/>
<path id="path35_fill" d="M 2.71963 -4.10156e-06L 0 3.1248L 3.45829 1.8144L 2.71963 -4.10156e-06Z"/>
<path id="path36_fill" d="M -4.09859e-06 2.2176L 3.05538 0L 1.2423 3.9312L -4.09859e-06 2.2176Z"/>
<path id="path37_fill" d="M 0.671509 0.571204L -4.09859e-06 2.2176L 3.05538 0L 0.671509 0.571204Z"/>
<path id="path38_fill" d="M 0 3.9312L 3.69332 2.95679L 1.81308 0L 0 3.9312Z"/>
<path id="path39_fill" d="M 0 0.974404L 1.41018 2.8896L 3.69332 -4.10156e-06L 0 0.974404Z"/>
<path id="path40_fill" d="M 1.98097 1.9152L -4.09859e-06 2.184L 0.570786 4.10156e-06L 1.98097 1.9152Z"/>
<path id="path41_fill" d="M 4.09859e-06 2.8896L 2.04811 2.51999L 2.28314 -4.10156e-06L 4.09859e-06 2.8896Z"/>
<path id="path42_fill" d="M 0.973695 1.7808L 4.09859e-06 0.369598L 2.04811 -4.10156e-06L 0.973695 1.7808Z"/>
<path id="path43_fill" d="M -4.09859e-06 0.268804L -4.09859e-06 2.7888L 1.98097 -2.05078e-06L -4.09859e-06 0.268804Z"/>
<path id="path44_fill" d="M 4.09859e-06 -2.05078e-06L 0.973695 1.4112L 4.09859e-06 2.1168L 4.09859e-06 -2.05078e-06Z"/>
<path id="path45_fill" d="M -4.09859e-06 2.7888L 1.98097 2.1168L 1.98097 -2.05078e-06L -4.09859e-06 2.7888Z"/>
<path id="path46_fill" d="M 0 0.840004L 2.11526 4.10156e-06L 2.11526 2.52L 0 0.840004Z"/>
<path id="path47_fill" d="M 3.8612 2.05078e-06L 2.08169 3.4608L 0 0.537604L 3.8612 2.05078e-06Z"/>
<path id="path48_fill" d="M 4.09859e-06 3.4608L 1.77951 5.0736L 1.77951 2.05078e-06L 4.09859e-06 3.4608Z"/>
<path id="path49_fill" d="M 0 4.10156e-06L 2.08169 2.9232L 0 4.4688L 0 4.10156e-06Z"/>
<path id="path50_fill" d="M 0 1.5456L 2.6189 3.7296L 2.08169 -2.05078e-06L 0 1.5456Z"/>
<path id="path51_fill" d="M 0.537206 3.7296L 1.77951 1.6128L 4.09859e-06 -2.05078e-06L 0.537206 3.7296Z"/>
<path id="path52_fill" d="M -4.09859e-06 2.1168L 2.58532 4.10156e-06L 1.2423 4.10156e-06L -4.09859e-06 2.1168Z"/>
<path id="path53_fill" d="M -4.09859e-06 2.1168L 4.70058 1.68L 2.58532 4.10156e-06L -4.09859e-06 2.1168Z"/>
<path id="path54_fill" d="M 0 0L 2.6189 2.184L 0 4.5024L 0 0Z"/>
<path id="path55_fill" d="M 0 1.3104L 3.82762 1.5792L 3.45829 4.10156e-06L 0 1.3104Z"/>
<path id="path56_fill" d="M 0.36933 2.2512L 1.98097 4.10156e-06L -4.09859e-06 0.672004L 0.36933 2.2512Z"/>
<path id="path57_fill" d="M -2.04929e-06 2.2512L 3.89477 0.974402L 1.61163 4.10156e-06L -2.04929e-06 2.2512Z"/>
<path id="path58_fill" d="M -2.04929e-06 1.2768L 3.55902 1.6464L 3.89477 2.05078e-06L -2.04929e-06 1.2768Z"/>
<path id="path59_fill" d="M 0 1.6464L 1.88024 2.4528L 0.335756 2.05078e-06L 0 1.6464Z"/>
<path id="path60_fill" d="M -2.04929e-06 -2.05078e-06L 1.61163 1.8144L 3.55902 0.3696L -2.04929e-06 -2.05078e-06Z"/>
<path id="path61_fill" d="M 4.09859e-06 1.4448L 3.82762 0.806398L 1.94739 0L 4.09859e-06 1.4448Z"/>
<path id="path62_fill" d="M 0.872971 0.638396L 2.04929e-06 3.192L 4.70059 -2.05078e-06L 0.872971 0.638396Z"/>
<path id="path63_fill" d="M 2.04929e-06 1.3776L 2.04812 -4.10156e-06L 3.69332 3.19199L 2.04929e-06 1.3776Z"/>
<path id="path64_fill" d="M 4.09859e-06 1.8144L 2.65248 2.4864L 2.65248 -2.05078e-06L 4.09859e-06 1.8144Z"/>
<path id="path65_fill" d="M 4.09859e-06 -4.10156e-06L 1.64521 3.19199L 2.65248 0.671996L 4.09859e-06 -4.10156e-06Z"/>
<path id="path66_fill" d="M 0 1.4448L 3.8612 2.3184L 3.8612 2.05078e-06L 0 1.4448Z"/>
<path id="path67_fill" d="M 0 -2.05078e-06L 3.8612 0.8736L 1.91382 3.0576L 0 -2.05078e-06Z"/>
<path id="path68_fill" d="M 1.91382 3.0576L 0 2.8896L 0 -2.05078e-06L 1.91382 3.0576Z"/>
<path id="path69_fill" d="M 1.91382 0.168L 0 4.2L 0 0L 1.91382 0.168Z"/>
<path id="path70_fill" d="M 4.09859e-06 2.184L 1.94739 3.0912L 1.94739 0L 4.09859e-06 2.184Z"/>
<path id="path71_fill" d="M 0 4.032L 1.91382 0L 2.88751 2.016L 0 4.032Z"/>
<path id="path72_fill" d="M 2.92108 -2.05078e-06L -2.04929e-06 0.772804L 1.54448 2.352L 2.92108 -2.05078e-06Z"/>
<path id="path73_fill" d="M 3.69332 1.8144L 0.906538 3.5616L 2.04929e-06 -2.05078e-06L 3.69332 1.8144Z"/>
<path id="path74_fill" d="M 4.09859e-06 0L 0.973695 2.016L 1.94739 0.907204L 4.09859e-06 0Z"/>
<path id="path75_fill" d="M 2.88751 0L 6.11077 2.016L 0 2.016L 2.88751 0Z"/>
<path id="path76_fill" d="M 2.04929e-06 1.1088L 2.6189 4.10156e-06L 0.973693 4.10156e-06L 2.04929e-06 1.1088Z"/>
<path id="path77_fill" d="M -2.04929e-06 4.10156e-06L 0.604365 3.1248L 1.54448 1.5792L -2.04929e-06 4.10156e-06Z"/>
<path id="path78_fill" d="M 2.04929e-06 1.1088L 2.6189 4.10156e-06L 3.22326 3.1248L 2.04929e-06 1.1088Z"/>
<path id="path79_fill" d="M 0 2.7552L 7.31948 4.10156e-06L 2.6189 0.4368L 0 2.7552Z"/>
<path id="path80_fill" d="M 0 2.352L 1.3766 -2.05078e-06L 2.28314 3.5616L 0 2.352Z"/>
<path id="path81_fill" d="M 4.09859e-06 1.5456L 3.22326 1.2096L 0.940118 -2.05078e-06L 4.09859e-06 1.5456Z"/>
<path id="path82_fill" d="M -2.04929e-06 -4.10156e-06L 2.48459 1.2432L 3.82762 -4.10156e-06L -2.04929e-06 -4.10156e-06Z"/>
<path id="path83_fill" d="M -4.09859e-06 1.2432L 1.34302 4.19999L 1.34302 -4.10156e-06L -4.09859e-06 1.2432Z"/>
<path id="path84_fill" d="M -2.04929e-06 -4.10156e-06L 2.48459 1.2432L -2.04929e-06 2.9568L -2.04929e-06 -4.10156e-06Z"/>
<path id="path85_fill" d="M -2.04929e-06 1.7136L 3.82762 2.95679L 2.48459 0L -2.04929e-06 1.7136Z"/>
<path id="path86_fill" d="M -2.04929e-06 2.05078e-06L -2.04929e-06 1.9152L 3.82762 1.2432L -2.04929e-06 2.05078e-06Z"/>
<path id="path87_fill" d="M -2.04929e-06 0.671996L 3.82762 2.8896L 3.82762 -4.10156e-06L -2.04929e-06 0.671996Z"/>
<path id="path88_fill" d="M -2.04929e-06 -4.10156e-06L 3.82762 4.36799L 3.82762 2.2176L -2.04929e-06 -4.10156e-06Z"/>
<path id="path89_fill" d="M -2.04929e-06 -4.10156e-06L 2.38387 2.7216L -2.04929e-06 4.36799L -2.04929e-06 -4.10156e-06Z"/>
<path id="path90_fill" d="M -2.04929e-06 1.6464L 3.82762 1.6464L 2.38387 -2.05078e-06L -2.04929e-06 1.6464Z"/>
<path id="path91_fill" d="M 3.82762 -4.10156e-06L -2.04929e-06 -4.10156e-06L 1.41018 1.6464L 3.82762 -4.10156e-06Z"/>
<path id="path92_fill" d="M 2.04929e-06 1.6464L 2.41744 3.7968L 2.41744 -4.10156e-06L 2.04929e-06 1.6464Z"/>
<path id="path93_fill" d="M 1.41018 1.6464L -2.04929e-06 4.6368L -2.04929e-06 -4.10156e-06L 1.41018 1.6464Z"/>
<path id="path94_fill" d="M -2.04929e-06 2.9904L 3.82762 2.1504L 1.41018 4.10156e-06L -2.04929e-06 2.9904Z"/>
<path id="path95_fill" d="M -2.04929e-06 0.840002L 2.48459 2.0832L 3.82762 2.05078e-06L -2.04929e-06 0.840002Z"/>
<path id="path96_fill" d="M 1.34302 2.05078e-06L 1.34302 4.7376L -4.09859e-06 2.0832L 1.34302 2.05078e-06Z"/>
<path id="path97_fill" d="M -2.04929e-06 2.05078e-06L 2.48459 1.2432L -2.04929e-06 3.2928L -2.04929e-06 2.05078e-06Z"/>
<path id="path98_fill" d="M -2.04929e-06 2.0496L 3.82762 2.6544L 2.48459 -4.10156e-06L -2.04929e-06 2.0496Z"/>
<path id="path99_fill" d="M -2.04929e-06 2.5536L 3.82762 0.604804L -2.04929e-06 -2.05078e-06L -2.04929e-06 2.5536Z"/>
<path id="path100_fill" d="M -4.09859e-06 1.9152L 3.12254 0L -4.09859e-06 0L -4.09859e-06 1.9152Z"/>
<path id="path101_fill" d="M 3.82762 4.10156e-06L 5.40568 1.9488L -2.04929e-06 1.9488L 3.82762 4.10156e-06Z"/>
<path id="path102_fill" d="M 3.12254 0L 1.57805 3.864L -4.09859e-06 1.9152L 3.12254 0Z"/>
<path id="path103_fill" d="M 2.04929e-06 0L 1.27587 1.9488L 2.98823 0L 2.04929e-06 0Z"/>
<path id="path104_fill" d="M -2.04929e-06 1.9488L 1.71236 3.864L 1.71236 0L -2.04929e-06 1.9488Z"/>
<path id="path105_fill" d="M 0 3.864L 2.82035 1.9488L 1.54448 0L 0 3.864Z"/>
<path id="path106_fill" d="M 0 1.9152L 2.82035 -4.10156e-06L 4.53271 1.9152L 0 1.9152Z"/>
</defs>
</svg>
