<svg viewBox="0 0 27 27" version="1.1" xmlns="http://www.w3.org/2000/svg" xmlns:xlink="http://www.w3.org/1999/xlink">
<g id="Canvas" transform="translate(-23052 -1803)">
<g id="shopping-basket">
<g id="Group">
<g id="Group">
<g id="Vector">
<use xlink:href="#path0_fill" transform="translate(23066.6 1817.62)" fill="#FFFFFF"/>
</g>
</g>
</g>
<g id="Group">
<g id="Group">
<g id="Vector">
<use xlink:href="#path1_fill" transform="translate(23052 1809.75)" fill="#FFFFFF"/>
</g>
</g>
</g>
<g id="Group">
<g id="Group">
<g id="Vector">
<use xlink:href="#path2_fill" transform="translate(23074.1 1809.75)" fill="#FFFFFF"/>
</g>
</g>
</g>
<g id="Group">
<g id="Group">
<g id="Vector">
<use xlink:href="#path3_fill" transform="translate(23053.1 1809.75)" fill="#FFFFFF"/>
</g>
</g>
</g>
<g id="Group">
<g id="Group">
<g id="Vector">
<use xlink:href="#path4_fill" transform="translate(23058.8 1803)" fill="#FFFFFF"/>
</g>
</g>
</g>
<g id="Group">
<g id="Group">
<g id="Vector">
<use xlink:href="#path5_fill" transform="translate(23065.5 1803)" fill="#FFFFFF"/>
</g>
</g>
</g>
<g id="Group">
<g id="Group">
<g id="Vector">
<use xlink:href="#path6_fill" transform="translate(23070 1823.25)" fill="#FFFFFF"/>
</g>
</g>
</g>
<g id="Group">
<g id="Group">
<g id="Vector">
<use xlink:href="#path7_fill" transform="translate(23072.2 1821)" fill="#FFFFFF"/>
</g>
</g>
</g>
</g>
</g>
<defs>
<path id="path0_fill" d="M 6.18748 3.8624e-08C 2.77536 3.8624e-08 7.85351e-07 2.77537 7.85351e-07 6.18752C 7.85351e-07 9.59966 2.77536 12.375 6.18748 12.375C 9.59961 12.375 12.375 9.59971 12.375 6.18757C 12.375 2.77542 9.59961 3.8624e-08 6.18748 3.8624e-08ZM 6.18748 11.2501C 3.39636 11.2501 1.12498 8.97871 1.12498 6.18757C 1.12498 3.39643 3.39636 1.12504 6.18748 1.12504C 8.97861 1.12504 11.25 3.39643 11.25 6.18757C 11.25 8.97871 8.97861 11.2501 6.18748 11.2501Z"/>
<path id="path1_fill" d="M 25.3125 2.8968e-08L 0.562518 2.8968e-08C 0.252018 2.8968e-08 0 0.252019 0 0.562521C 0 0.873022 0.252018 1.12504 0.562518 1.12504L 25.3125 1.12504C 25.623 1.12504 25.875 0.873022 25.875 0.562521C 25.875 0.252019 25.623 2.8968e-08 25.3125 2.8968e-08Z"/>
<path id="path2_fill" d="M 2.24535 0.0197367C 1.94835 -0.0612637 1.63558 0.114238 1.55458 0.414614L 0.0201198 6.04298C -0.0619877 6.34225 0.11462 6.65159 0.414995 6.73375C 0.464513 6.74836 0.513976 6.754 0.563494 6.754C 0.810976 6.754 1.03826 6.58974 1.10576 6.33888L 2.64028 0.710456C 2.72239 0.411239 2.54573 0.101845 2.24535 0.0197367Z"/>
<path id="path3_fill" d="M 11.8123 12.3746L 5.65632 12.3746C 4.89694 12.3746 4.22758 11.8627 4.0273 11.1315L 1.1046 0.414614C 1.0236 0.114237 0.713102 -0.0612639 0.414994 0.0197365C 0.114619 0.100737 -0.061988 0.410132 0.0201194 0.709348L 2.94287 11.4273C 3.27589 12.6479 4.39074 13.4996 5.65637 13.4996L 11.8124 13.4996C 12.1229 13.4996 12.3749 13.2475 12.3749 12.937C 12.3748 12.6265 12.1228 12.3746 11.8123 12.3746Z"/>
<path id="path4_fill" d="M 5.374 0.0941093C 5.11413 -0.0780166 4.7654 -0.00714127 4.59438 0.250468L 0.0943962 7.0005C -0.0777288 7.25927 -0.00796146 7.60801 0.250753 7.78013C 0.346361 7.84426 0.454361 7.87463 0.562361 7.87463C 0.743503 7.87463 0.922378 7.78688 1.03038 7.62377L 5.53036 0.873738C 5.70254 0.61497 5.63277 0.266235 5.374 0.0941093Z"/>
<path id="path5_fill" d="M 5.53037 7.0008L 1.03039 0.250768C 0.858266 -0.00800073 0.509534 -0.0777159 0.250766 0.09441C -0.00800109 0.266536 -0.0777157 0.61527 0.0944092 0.874039L 4.59439 7.62408C 4.7035 7.78718 4.88127 7.87493 5.06352 7.87493C 5.17152 7.87493 5.27952 7.84456 5.37402 7.78043C 5.63278 7.60831 5.7025 7.25957 5.53037 7.0008Z"/>
<path id="path6_fill" d="M 5.0625 -3.73365e-07L 0.562518 -3.73365e-07C 0.252018 -3.73365e-07 4.11987e-07 0.252018 4.11987e-07 0.56252C 4.11987e-07 0.873021 0.252018 1.12504 0.562518 1.12504L 5.0625 1.12504C 5.373 1.12504 5.62502 0.873021 5.62502 0.56252C 5.62502 0.252018 5.373 -3.73365e-07 5.0625 -3.73365e-07Z"/>
<path id="path7_fill" d="M 0.562517 3.8624e-08C 0.252017 3.8624e-08 0 0.252019 0 0.56252L 0 5.06253C 0 5.37303 0.252017 5.62505 0.562517 5.62505C 0.873017 5.62505 1.12504 5.37303 1.12504 5.06253L 1.12504 0.56252C 1.12498 0.252019 0.873017 3.8624e-08 0.562517 3.8624e-08Z"/>
</defs>
</svg>
