<svg viewBox="0 0 14 14" version="1.1" xmlns="http://www.w3.org/2000/svg" xmlns:xlink="http://www.w3.org/1999/xlink">
<g id="Canvas" transform="translate(-23090 -6567)">
<g id="closed-envelope-circle">
<g id="Group">
<g id="Group">
<g id="Vector">
<use xlink:href="#path0_fill" transform="translate(23090 6567)" fill="#FFFFFF"/>
</g>
</g>
</g>
</g>
</g>
<defs>
<path id="path0_fill" d="M 7 14C 6.356 14 5.73533 13.916 5.138 13.748C 4.54067 13.5799 3.983 13.3443 3.465 13.041C 2.947 12.7377 2.47567 12.3737 2.051 11.949C 1.62633 11.5244 1.26233 11.053 0.959 10.535C 0.655667 10.017 0.42 9.45933 0.252 8.86198C 0.084 8.26467 0 7.644 0 7C 0 6.356 0.084 5.73533 0.252 5.138C 0.42 4.54067 0.655667 3.983 0.959 3.465C 1.26233 2.947 1.62633 2.47567 2.051 2.051C 2.47567 1.62633 2.947 1.26233 3.465 0.959C 3.983 0.655667 4.54067 0.42 5.138 0.252C 5.73533 0.084 6.356 0 7 0C 7.96133 0 8.869 0.184333 9.723 0.553C 10.577 0.921667 11.319 1.421 11.949 2.051C 12.579 2.681 13.0783 3.423 13.447 4.277C 13.8157 5.131 14 6.03867 14 7C 14 7.644 13.916 8.26467 13.748 8.862C 13.5799 9.45926 13.3443 10.0169 13.041 10.535C 12.7377 11.053 12.3737 11.5243 11.949 11.949C 11.5244 12.3737 11.053 12.7377 10.535 13.041C 10.017 13.3443 9.45933 13.58 8.86195 13.748C 8.26467 13.916 7.644 14 7 14ZM 10.374 4.116L 3.738 4.116C 3.67267 4.116 3.61667 4.137 3.57 4.179C 3.52333 4.221 3.5 4.27933 3.5 4.354L 3.5 5.096C 3.5 5.13333 3.514 5.152 3.542 5.152L 7.028 7.14L 7.05607 7.154C 7.07467 7.154 7.08874 7.14933 7.09807 7.14L 10.4721 5.152C 10.4907 5.14267 10.5047 5.138 10.5141 5.138C 10.5233 5.138 10.5374 5.13333 10.5561 5.124C 10.5934 5.124 10.6121 5.10533 10.6121 5.068L 10.6121 4.354C 10.6121 4.27933 10.5887 4.221 10.542 4.179C 10.4953 4.137 10.4393 4.116 10.374 4.116ZM 5.614 7.098C 5.62333 7.08867 5.628 7.07464 5.628 7.056C 5.628 7.02793 5.61867 7.014 5.6 7.014L 3.598 5.86598C 3.57 5.85664 3.54667 5.85664 3.528 5.86598C 3.50933 5.86598 3.5 5.87998 3.5 5.90798L 3.5 8.91798C 3.5 8.94605 3.514 8.96464 3.542 8.97398L 3.57 8.97398C 3.58867 8.97398 3.598 8.96931 3.598 8.95998L 5.614 7.098ZM 8.05 7.322C 8.04067 7.29393 8.01726 7.28933 7.97993 7.308L 7.20993 7.756C 7.1166 7.812 7.01867 7.812 6.91593 7.756L 6.24393 7.37807C 6.21593 7.3594 6.1926 7.3594 6.17393 7.37807L 3.61193 9.75807C 3.6026 9.76733 3.59793 9.78607 3.59793 9.814C 3.59793 9.82333 3.60726 9.83736 3.62593 9.856C 3.68193 9.87467 3.71926 9.88407 3.73793 9.88407L 10.304 9.88407C 10.3226 9.88407 10.3414 9.87473 10.36 9.856C 10.36 9.81867 10.3553 9.7954 10.346 9.786L 8.05 7.322ZM 10.57 5.81L 10.5141 5.81L 8.61007 6.944C 8.59147 6.944 8.58207 6.958 8.58207 6.986C 8.57273 6.99533 8.5774 7.00933 8.596 7.02793L 10.5 9.086C 10.5187 9.10467 10.5327 9.11407 10.542 9.11407L 10.57 9.11407C 10.5981 9.086 10.6121 9.0674 10.6121 9.05807L 10.6121 5.86602C 10.612 5.84733 10.598 5.82867 10.57 5.81Z"/>
</defs>
</svg>
