<svg viewBox="0 0 14 14" version="1.1" xmlns="http://www.w3.org/2000/svg" xmlns:xlink="http://www.w3.org/1999/xlink">
<g id="Canvas" transform="translate(-23090 -6423)">
<g id="phone-symbol-of-an-auricular-inside-a-circle">
<g id="Group">
<g id="Vector">
<use xlink:href="#path0_fill" transform="translate(23090 6423)" fill="#FFFFFF"/>
</g>
</g>
</g>
</g>
<defs>
<path id="path0_fill" d="M 7.00003 0C 3.1343 0 1.37047e-12 3.13428 1.37047e-12 7C 1.37047e-12 10.8657 3.1343 14 7.00003 14C 10.8658 14 14 10.8656 14 7C 14 3.13428 10.8658 0 7.00003 0ZM 10.6965 10.2138L 10.136 10.7744C 10.036 10.8743 9.74296 10.9366 9.73355 10.9366C 7.96045 10.9521 6.25321 10.2556 4.99884 9.00115C 3.74103 7.74263 3.04375 6.02931 3.06248 4.25025C 3.06248 4.24944 3.12665 3.96483 3.22663 3.8658L 3.78708 3.30527C 3.99217 3.09923 4.38613 3.00612 4.66212 3.09845L 4.78001 3.13777C 5.05519 3.23002 5.3441 3.53428 5.42013 3.81459L 5.70205 4.84933C 5.77808 5.13045 5.67554 5.53038 5.47051 5.73547L 5.09628 6.10976C 5.4637 7.46996 6.53096 8.53742 7.8914 8.90574L 8.26548 8.53136C 8.47153 8.32532 8.87132 8.22286 9.15184 8.29878L 10.1864 8.58171C 10.4668 8.65875 10.771 8.94584 10.8632 9.22093L 10.9025 9.34053C 10.994 9.61573 10.9016 10.0096 10.6965 10.2138Z"/>
</defs>
</svg>
