<svg viewBox="0 0 30 40" version="1.1" xmlns="http://www.w3.org/2000/svg" xmlns:xlink="http://www.w3.org/1999/xlink">
<g id="Canvas" transform="translate(-21775 -4052)">
<g id="placeholder-filled-point">
<g id="Group">
<g id="Vector">
<use xlink:href="#path0_fill" transform="translate(21775 4052)" fill="#FFAD45"/>
</g>
</g>
</g>
</g>
<defs>
<path id="path0_fill" d="M 14.9994 0C 6.72912 0 1.55882e-07 6.60635 1.55882e-07 14.7265C 1.55882e-07 16.8446 0.441575 18.8669 1.3118 20.7377C 5.06206 28.7944 12.2524 37.3006 14.3672 39.7155C 14.5257 39.896 14.7567 40 14.9998 40C 15.2429 40 15.4739 39.896 15.6323 39.7155C 17.7464 37.301 24.9367 28.7952 28.6882 20.7377C 29.5588 18.8669 30 16.8446 30 14.7265C 29.9992 6.60635 23.27 0 14.9994 0ZM 14.9994 22.3756C 10.7033 22.3756 7.20781 18.9438 7.20781 14.7261C 7.20781 10.508 10.7033 7.07631 14.9994 7.07631C 19.2955 7.07631 22.7909 10.508 22.7909 14.7261C 22.7914 18.9438 19.2959 22.3756 14.9994 22.3756Z"/>
</defs>
</svg>
