<svg viewBox="0 0 19 20" version="1.1" xmlns="http://www.w3.org/2000/svg" xmlns:xlink="http://www.w3.org/1999/xlink">
<g id="Canvas" transform="translate(-22885 -1807)">
<g id="magnifying-glass-browser">
<g id="Group">
<g id="Group">
<g id="Vector">
<use xlink:href="#path0_fill" transform="translate(22885 1807)" fill="#FFFFFF"/>
</g>
</g>
</g>
</g>
</g>
<defs>
<path id="path0_fill" d="M 13.1969 13.0557C 14.4488 11.6716 15.2299 9.81819 15.2299 7.77713C 15.2299 3.49559 11.8187 0 7.61494 0C 3.41122 0 2.31956e-09 3.49559 2.31956e-09 7.77713C 2.31956e-09 12.0587 3.41122 15.5543 7.61494 15.5543C 9.3263 15.5543 10.8998 14.9795 12.1747 14.0059L 17.8371 19.7889C 17.9749 19.9296 18.1472 20 18.3195 20C 18.4918 20 18.6755 19.9296 18.8019 19.7889C 19.066 19.519 19.066 19.0733 18.8019 18.7918L 13.1969 13.0557ZM 1.37827 7.77713C 1.37827 4.26978 4.16926 1.40763 7.61494 1.40763C 11.0491 1.40763 13.8516 4.25807 13.8516 7.77713C 13.8516 11.2962 11.0606 14.1466 7.61494 14.1466C 4.16926 14.1466 1.37827 11.2845 1.37827 7.77713Z"/>
</defs>
</svg>
