<svg viewBox="0 0 25 25" version="1.1" xmlns="http://www.w3.org/2000/svg" xmlns:xlink="http://www.w3.org/1999/xlink">
<g id="Canvas" transform="translate(-23258 -1803)">
<g id="user">
<g id="Vector">
<use xlink:href="#path0_fill" transform="translate(23258 1803)" fill="#FFFFFF"/>
</g>
</g>
</g>
<defs>
<path id="path0_fill" d="M 21.3404 3.65701C 16.4662 -1.219 8.53502 -1.219 3.66077 3.65701C 1.9506 5.36777 0.780772 7.51702 0.277651 9.87248C -0.212158 12.166 -0.0517148 14.5423 0.741594 16.7442C 0.83691 17.0086 1.12854 17.1457 1.39278 17.0504C 1.65719 16.9551 1.79422 16.6634 1.69891 16.399C 0.970047 14.3759 0.822664 12.1927 1.27279 10.0851C 1.73469 7.92225 2.80929 5.94826 4.3803 4.3767C 8.85786 -0.10239 16.1433 -0.10239 20.6209 4.3767C 22.7532 6.50983 23.9468 9.34527 23.9819 12.3609C 24.0169 15.371 22.8955 18.2291 20.8244 20.4085C 20.7999 20.4343 20.7756 20.4603 20.7514 20.4862C 20.7085 20.5321 20.6657 20.5781 20.6209 20.6229C 16.1433 25.102 8.85786 25.102 4.3803 20.6229C 4.35647 20.599 4.33324 20.5748 4.31026 20.5505C 4.30907 20.5035 4.30805 20.4572 4.30805 20.4116C 4.30805 20.3091 4.31 20.207 4.31373 20.1053C 4.31501 20.0713 4.31755 20.0376 4.31925 20.0037C 4.32255 19.9361 4.32569 19.8685 4.33061 19.8012C 4.33358 19.7611 4.3379 19.7214 4.34146 19.6814C 4.34681 19.6208 4.35181 19.5601 4.35842 19.4998C 4.36309 19.4572 4.36919 19.415 4.37454 19.3726C 4.38174 19.3153 4.38861 19.2579 4.39709 19.2009C 4.40354 19.1574 4.41117 19.1144 4.41829 19.0712C 4.42737 19.0157 4.43619 18.9601 4.44645 18.9049C 4.4545 18.8612 4.46375 18.8179 4.47257 18.7745C 4.4835 18.7203 4.49427 18.666 4.50632 18.6122C 4.51607 18.5685 4.52692 18.525 4.53735 18.4816C 4.55007 18.4286 4.56271 18.3756 4.57645 18.323C 4.58789 18.2794 4.60027 18.2361 4.61232 18.1928C 4.62682 18.1408 4.64123 18.0888 4.65675 18.0373C 4.66973 17.994 4.68363 17.9511 4.69737 17.9081C 4.71365 17.8572 4.72993 17.8061 4.74715 17.7555C 4.76173 17.7129 4.777 17.6705 4.79226 17.628C 4.81033 17.5778 4.82847 17.5276 4.84747 17.4777C 4.86358 17.4356 4.88029 17.3938 4.89708 17.352C 4.91684 17.3027 4.93676 17.2534 4.95745 17.2046C 4.97509 17.163 4.99324 17.1218 5.01156 17.0806C 5.03301 17.0321 5.05472 16.9838 5.07711 16.9359C 5.09619 16.8951 5.11569 16.8546 5.13545 16.8141C 5.15869 16.7665 5.18218 16.719 5.20626 16.6719C 5.2267 16.6321 5.24747 16.5924 5.26859 16.5528C 5.29352 16.506 5.31887 16.4593 5.34474 16.4129C 5.36653 16.3739 5.38858 16.3351 5.41097 16.2965C 5.4376 16.2506 5.46465 16.2049 5.49221 16.1595C 5.51536 16.1213 5.53876 16.0833 5.56251 16.0455C 5.59083 16.0005 5.61958 15.9558 5.64875 15.9114C 5.67317 15.8742 5.69776 15.8371 5.72278 15.8003C 5.75271 15.7562 5.78333 15.7126 5.8142 15.6691C 5.83989 15.6328 5.86558 15.5967 5.89187 15.561C 5.9235 15.5179 5.95581 15.4752 5.98829 15.4328C 6.01517 15.3977 6.04197 15.3626 6.06944 15.3279C 6.10277 15.2857 6.13686 15.2441 6.17104 15.2026C 6.19894 15.1687 6.22683 15.1347 6.25533 15.1012C 6.29043 15.06 6.32631 15.0194 6.36226 14.9788C 6.39126 14.9461 6.42009 14.9132 6.44961 14.881C 6.48641 14.8408 6.52398 14.8013 6.56163 14.7619C 6.59165 14.7303 6.6215 14.6987 6.65202 14.6676C 6.69061 14.6284 6.73004 14.59 6.76939 14.5515C 6.80026 14.5214 6.83087 14.491 6.86224 14.4613C 6.90278 14.4229 6.94425 14.3855 6.98554 14.348C 7.01709 14.3194 7.04821 14.2905 7.08018 14.2623C 7.12284 14.2248 7.16659 14.1883 7.2101 14.1515C 7.24198 14.1247 7.27353 14.0973 7.30584 14.0709C 7.35087 14.0341 7.397 13.9983 7.44296 13.9624C 7.47501 13.9374 7.50656 13.9117 7.53895 13.8871C 7.58737 13.8504 7.63681 13.8149 7.68617 13.7793C 7.71729 13.7568 7.74782 13.7337 7.77936 13.7115C 7.83381 13.6733 7.88952 13.6364 7.94506 13.5993C 7.97245 13.5811 7.99925 13.5622 8.02681 13.5442C 8.09923 13.4971 8.17292 13.4515 8.24712 13.4066C 8.25866 13.3996 8.26985 13.3922 8.28147 13.3852C 8.36728 13.3338 8.45429 13.2839 8.54231 13.2354C 8.57242 13.2188 8.60337 13.2033 8.63381 13.1871C 8.69224 13.1559 8.7505 13.1244 8.80994 13.0946C 8.84802 13.0754 8.88703 13.0574 8.92544 13.0388C 8.97395 13.0153 9.02228 12.9916 9.07138 12.9689C 9.99359 13.8502 11.2238 14.349 12.5007 14.349C 13.7776 14.349 15.0079 13.8501 15.9301 12.9688C 17.7304 13.8022 19.2038 15.2977 20.0037 17.1163C 20.1168 17.3735 20.4169 17.4904 20.6743 17.3772C 20.9315 17.264 21.0483 16.9636 20.9351 16.7064C 20.0601 14.7171 18.5368 13.1275 16.6087 12.1679C 17.1681 11.347 17.4708 10.3776 17.4708 9.37733C 17.4708 6.63589 15.2412 4.40555 12.5007 4.40555C 12.2198 4.40555 11.9919 4.63348 11.9919 4.91453C 11.9919 5.19557 12.2198 5.4235 12.5007 5.4235C 14.6802 5.4235 16.4532 7.19721 16.4532 9.37733C 16.4532 10.3522 16.091 11.2909 15.4335 12.0204C 15.4334 12.0205 15.4333 12.0205 15.4332 12.0206C 14.6824 12.8535 13.6136 13.3312 12.5006 13.3312C 11.3877 13.3312 10.3188 12.8535 9.56806 12.0206C 9.56798 12.0205 9.56781 12.0204 9.56764 12.0203C 8.91018 11.2906 8.54808 10.3521 8.54808 9.37742C 8.54808 8.31331 8.96454 7.31504 9.72079 6.56667C 9.92058 6.36893 9.92227 6.04666 9.7246 5.84689C 9.52702 5.64694 9.20486 5.64542 9.00507 5.84299C 8.0542 6.78375 7.53047 8.03897 7.53047 9.37708C 7.53047 10.3764 7.83236 11.345 8.39086 12.1655C 8.38586 12.168 8.38102 12.1707 8.3761 12.1732C 8.33642 12.1931 8.29766 12.2141 8.25832 12.2344C 8.19802 12.2656 8.13756 12.2967 8.07812 12.3292C 8.03605 12.3521 7.99493 12.3761 7.95329 12.3996C 7.89774 12.4311 7.84212 12.4624 7.78733 12.4949C 7.74485 12.5202 7.70304 12.5463 7.66098 12.5722C 7.60841 12.6046 7.55583 12.6369 7.50402 12.6703C 7.4617 12.6975 7.42015 12.7255 7.37834 12.7533C 7.32805 12.7868 7.27785 12.8205 7.22833 12.8549C 7.18669 12.8839 7.14556 12.9135 7.10444 12.9432C 7.0561 12.978 7.00793 13.0131 6.96036 13.0488C 6.91957 13.0794 6.87929 13.1104 6.83909 13.1417C 6.79245 13.1779 6.74615 13.2144 6.70036 13.2514C 6.66067 13.2835 6.62133 13.316 6.58215 13.3486C 6.53712 13.3863 6.49243 13.4244 6.44816 13.4629C 6.40975 13.4962 6.37159 13.5298 6.33377 13.5638C 6.2901 13.6031 6.24702 13.6428 6.20419 13.6829C 6.16722 13.7174 6.13033 13.752 6.09387 13.7872C 6.05155 13.8281 6.00991 13.8696 5.96836 13.9112C 5.93292 13.9468 5.89747 13.9822 5.8627 14.0183C 5.82157 14.061 5.78121 14.1044 5.74093 14.1478C 5.70726 14.1841 5.67334 14.2203 5.64027 14.2572C 5.59999 14.302 5.56081 14.3477 5.52146 14.3932C 5.48983 14.4299 5.45795 14.4662 5.42691 14.5033C 5.38697 14.551 5.3483 14.5997 5.30938 14.6482C 5.28046 14.6844 5.25095 14.72 5.22254 14.7566C 5.18167 14.8091 5.14215 14.8628 5.10246 14.9162C 5.07753 14.9498 5.05192 14.9828 5.0275 15.0167C 4.9773 15.0863 4.92871 15.1569 4.88054 15.2278C 4.86791 15.2464 4.85451 15.2646 4.84196 15.2833C 4.782 15.3729 4.72374 15.4635 4.66701 15.5551C 4.64742 15.5868 4.62902 15.6191 4.60986 15.6509C 4.57314 15.7119 4.53625 15.7728 4.50089 15.8347C 4.47884 15.8733 4.45798 15.9125 4.43652 15.9515C 4.40557 16.0075 4.37445 16.0633 4.34477 16.1199C 4.32272 16.1619 4.30186 16.2044 4.28041 16.2468C 4.25276 16.3014 4.22503 16.3559 4.19849 16.4112C 4.17737 16.4551 4.15728 16.4996 4.13684 16.5437C 4.11174 16.5983 4.08655 16.6528 4.06247 16.7078C 4.04263 16.7532 4.02363 16.799 4.00455 16.8447C 3.98157 16.8996 3.95876 16.9545 3.93688 17.0098C 3.91848 17.0563 3.90084 17.103 3.8832 17.1498C 3.86234 17.2052 3.84173 17.2608 3.82189 17.3167C 3.8051 17.3641 3.78882 17.4118 3.77271 17.4596C 3.7538 17.5156 3.73539 17.5719 3.71759 17.6285C 3.70241 17.6766 3.68774 17.7248 3.67332 17.7732C 3.65636 17.8303 3.63999 17.8875 3.62414 17.945C 3.61074 17.9936 3.59759 18.0422 3.58496 18.091C 3.56995 18.1492 3.5557 18.2075 3.54179 18.266C 3.53018 18.3149 3.51864 18.3637 3.50787 18.4127C 3.49481 18.472 3.48269 18.5316 3.47082 18.5914C 3.46106 18.6402 3.45114 18.6891 3.44215 18.7382C 3.43104 18.7991 3.42104 18.8604 3.41112 18.9217C 3.40331 18.97 3.39509 19.0183 3.38805 19.0668C 3.37881 19.1301 3.37101 19.1937 3.36303 19.2574C 3.35718 19.3045 3.35074 19.3516 3.34557 19.3989C 3.33827 19.4656 3.33268 19.5327 3.32682 19.5998C 3.32292 19.6445 3.31826 19.6891 3.31504 19.734C 3.30961 19.8089 3.30605 19.8842 3.3024 19.9595C 3.30062 19.9969 3.29782 20.0341 3.29647 20.0716C 3.2924 20.1846 3.29011 20.298 3.29011 20.4118C 3.29011 20.5347 3.29426 20.6509 3.29926 20.7793C 3.30045 20.809 3.30461 20.8378 3.31054 20.866C 3.31105 20.8682 3.31131 20.8704 3.31182 20.8726C 3.31809 20.9003 3.32691 20.927 3.33751 20.9528C 3.33853 20.9553 3.33946 20.9579 3.34056 20.9604C 3.3515 20.9859 3.36456 21.0101 3.37932 21.0332C 3.38118 21.0361 3.38296 21.039 3.38483 21.0418C 3.40001 21.0644 3.41688 21.0857 3.43528 21.1056C 3.43664 21.107 3.43757 21.1088 3.43893 21.1102L 3.50609 21.1817C 3.5568 21.236 3.60751 21.2901 3.66043 21.343C 6.0976 23.781 9.2989 25 12.5003 25C 15.7017 25 18.903 23.781 21.3402 21.343C 21.3931 21.2901 21.4438 21.2359 21.4945 21.1817L 21.5617 21.1102C 23.8164 18.7374 25.0372 15.6262 24.9991 12.3494C 24.9612 9.06609 23.6617 5.97914 21.3404 3.65701Z"/>
</defs>
</svg>
