<svg viewBox="0 0 15 15" version="1.1" xmlns="http://www.w3.org/2000/svg" xmlns:xlink="http://www.w3.org/1999/xlink">
<g id="Canvas" transform="translate(-23090 -6536)">
<g id="Group 2">
<g id="Ellipse 2">
<use xlink:href="#path0_fill" transform="translate(23090 6536)" fill="#FFFFFF"/>
</g>
<g id="earth-globe">
<g id="Group">
<g id="Vector">
<use xlink:href="#path1_fill" transform="matrix(-1 0 0 1 23101 6539)" fill="#1A1A1A"/>
</g>
</g>
</g>
</g>
</g>
<defs>
<path id="path0_fill" d="M 14.1714 7.23331C 14.1714 11.2282 10.999 14.4666 7.08569 14.4666C 3.17237 14.4666 0 11.2282 0 7.23331C 0 3.23846 3.17237 0 7.08569 0C 10.999 0 14.1714 3.23846 14.1714 7.23331Z"/>
<path id="path1_fill" d="M 6.82776 1.17224C 6.07347 0.416327 5.06776 0 4 0C 2.93224 0 1.92653 0.416327 1.17224 1.17224C 0.417959 1.92816 -2.32014e-16 2.93224 -2.32014e-16 4C -2.32014e-16 5.06776 0.416327 6.07347 1.17224 6.82776C 1.92816 7.58204 2.93224 8 4 8C 5.06776 8 6.07347 7.58367 6.82776 6.82776C 7.58204 6.07184 8 5.06776 8 4C 8 2.93224 7.58367 1.92653 6.82776 1.17224ZM 7.63755 3.82041L 6.08653 3.82041C 6.07184 3.20327 5.98531 2.60898 5.83347 2.08163C 6.12898 1.9298 6.4049 1.73878 6.65796 1.51347C 7.22939 2.12408 7.59347 2.93061 7.63755 3.82041ZM 4.17959 4.17959L 5.72898 4.17959C 5.71592 4.74776 5.63755 5.29143 5.50204 5.77796C 5.08408 5.6098 4.63837 5.51184 4.17959 5.49061L 4.17959 4.17959ZM 6.4 1.26367C 6.19102 1.44816 5.96245 1.6049 5.72082 1.73551C 5.65878 1.56245 5.58857 1.39918 5.5102 1.24571C 5.3551 0.938776 5.17878 0.687347 4.98449 0.494694C 5.5151 0.643265 5.99673 0.909388 6.4 1.26367ZM 4.17959 0.414694C 4.55347 0.497959 4.90612 0.842449 5.1902 1.40408C 5.26694 1.55592 5.33551 1.71755 5.39592 1.88898C 5.01224 2.04735 4.60245 2.14041 4.17959 2.16163L 4.17959 0.414694ZM 5.50367 2.23347C 5.63755 2.71673 5.71429 3.25714 5.72735 3.82204L 4.17959 3.82204L 4.17959 2.52245C 4.64 2.50122 5.08571 2.40163 5.50367 2.23347ZM 3.82041 3.82041L 2.27102 3.82041C 2.28408 3.25551 2.36082 2.7151 2.49469 2.23184C 2.91265 2.40163 3.36 2.49959 3.81878 2.51918L 3.81878 3.82041L 3.82041 3.82041ZM 3.82204 0.414694L 3.82204 2.16163C 3.39918 2.14041 2.98776 2.04735 2.60571 1.88898C 2.66612 1.71755 2.73469 1.55592 2.81143 1.40408C 3.09551 0.842449 3.44816 0.497959 3.82204 0.414694ZM 3.01714 0.494694C 2.82286 0.687347 2.64653 0.940408 2.49143 1.24571C 2.41469 1.39918 2.34449 1.56245 2.28082 1.73551C 2.03918 1.6049 1.81224 1.44816 1.60163 1.26367C 2.0049 0.909388 2.48653 0.643265 3.01714 0.494694ZM 1.34367 1.51347C 1.59673 1.73878 1.87265 1.92816 2.16816 2.08163C 2.01633 2.61061 1.92816 3.20327 1.9151 3.82041L 0.364082 3.82041C 0.408163 2.93061 0.772245 2.12408 1.34367 1.51347ZM 0.364082 4.17959L 1.9151 4.17959C 1.9298 4.80163 2.01796 5.39755 2.17143 5.92816C 1.87755 6.08 1.60163 6.26776 1.3502 6.49306C 0.773878 5.88082 0.408163 5.07265 0.364082 4.17959ZM 1.60816 6.74286C 1.81714 6.56 2.04408 6.40326 2.28408 6.27429C 2.34612 6.44245 2.41469 6.60408 2.49143 6.75429C 2.64653 7.06122 2.82286 7.31265 3.01714 7.50694C 2.4898 7.35837 2.0098 7.09388 1.60816 6.74286ZM 3.82204 7.58531C 3.44816 7.50204 3.09551 7.15755 2.81143 6.59592C 2.73633 6.44735 2.66939 6.28898 2.60898 6.12082C 2.99102 5.96245 3.40082 5.86939 3.82204 5.8498L 3.82204 7.58531ZM 2.49959 5.77796C 2.36408 5.29143 2.28571 4.74776 2.27265 4.17959L 3.82204 4.17959L 3.82204 5.49061C 3.36327 5.5102 2.91755 5.60816 2.49959 5.77796ZM 4.18122 7.58531L 4.18122 5.8498C 4.60245 5.87102 5.01224 5.96245 5.39429 6.12082C 5.33388 6.28898 5.26694 6.44735 5.19184 6.59592C 4.90775 7.15755 4.5551 7.50204 4.18122 7.58531ZM 4.98612 7.50531C 5.18041 7.31265 5.35673 7.05959 5.51184 6.75265C 5.58857 6.60245 5.65714 6.44082 5.71918 6.27265C 5.95918 6.40163 6.18612 6.55837 6.3951 6.74122C 5.99347 7.09388 5.51347 7.35837 4.98612 7.50531ZM 6.65469 6.49306C 6.40327 6.26939 6.12735 6.08 5.83347 5.92816C 5.98694 5.39755 6.0751 4.8 6.0898 4.17959L 7.64082 4.17959C 7.5951 5.07265 7.22939 5.88082 6.65469 6.49306Z"/>
</defs>
</svg>
